<svg width="1427" height="1356" viewBox="0 0 1427 1356" fill="none" xmlns="http://www.w3.org/2000/svg">
<path fill-rule="evenodd" clip-rule="evenodd" d="M683.587 3.11152C683.587 4.93563 685.624 6.43008 688.114 6.43008C699.408 6.43008 699.155 14.3953 686.544 56.4284C679.589 79.6081 672.753 99.6043 671.35 100.863C669.951 102.119 665.848 103.827 662.234 104.659C658.62 105.491 664.534 106.169 675.374 106.169C686.215 106.169 692.496 105.522 689.336 104.734C686.123 103.931 683.587 100.339 683.587 96.5902C683.587 88.691 699.99 31.1011 703.265 27.5063C704.5 26.1468 713.258 44.1588 722.723 67.5363C732.184 90.9107 741.024 110.037 742.367 110.037C743.708 110.037 751.089 88.4932 758.773 62.1581C770.136 23.2019 774.381 12.9667 781.545 7.23067L790.353 0.182264L773.106 0.166551C763.622 0.157132 755.859 1.56369 755.859 3.29047C755.859 5.01726 758.077 6.43008 760.787 6.43008C763.497 6.43008 765.711 8.19768 765.708 10.3546C765.688 18.5835 747.236 75.872 744.608 75.85C743.09 75.8374 734.986 59.1535 726.596 38.7743L711.34 1.72067L697.463 0.756809C689.264 0.1854 683.587 1.14926 683.587 3.11152ZM705.009 193.07L699.03 244.704L680.631 246.547C559.946 258.635 461.57 303.538 385.717 381.164C316.293 452.211 274.553 542.374 264.714 642.534L262.523 664.847L206.962 670.486C176.404 673.588 151.401 676.969 151.401 678.002C151.401 679.032 252.293 679.481 375.609 679C498.922 678.517 624.209 678.517 654.021 679L708.225 679.876L668.804 718.732C647.123 740.103 603.513 781.006 571.894 809.624C540.275 838.241 512.256 864.554 509.635 868.096C504.096 875.565 504.776 875.163 529.526 856.256C537.844 849.905 546.342 844.706 548.415 844.706C550.488 844.706 552.183 843.324 552.183 841.638C552.183 839.952 555.846 836.276 560.327 833.472C568.123 828.59 568.996 828.769 580.859 837.623C605.034 855.672 650.257 876.102 666.035 876.102C672.595 876.102 671.38 871.226 664.698 870.743C653.243 869.914 621.43 856.793 602.623 845.145C570.192 825.055 569.729 827.25 613.23 794.934C634.291 779.289 652.487 766.074 653.67 765.569C654.852 765.06 667.388 747.334 681.527 726.176C695.67 705.018 708.61 686.9 710.285 685.907C712.151 684.805 712.979 787.016 712.42 949.644C711.921 1095.69 712.338 1215.18 713.353 1215.18C714.365 1215.18 718.596 1186.57 722.752 1151.6C733.862 1058.13 729.785 1068.78 755.399 1066.29C779.548 1063.94 822.813 1055.21 820.632 1053.13C819.869 1052.39 809.784 1053.88 798.227 1056.43C786.67 1058.97 767.016 1062.04 754.555 1063.25L731.898 1065.44L733.81 1057.89C734.861 1053.74 736.75 1039.75 738.005 1026.8C740.827 997.652 743.563 992.267 755.554 992.267C770.905 992.267 825.001 977.989 848.92 967.625C937.801 929.108 1006.56 850.728 1030.46 760.693C1034.82 744.295 1038.4 727.171 1038.43 722.644C1038.52 707.511 1041.65 706.258 1094.61 700.114C1165.32 691.914 1159.22 690.906 1157.57 710.487C1156.81 719.552 1153.99 738.785 1151.31 753.227C1148.63 767.669 1147.08 780.105 1147.88 780.865C1149.53 782.438 1158.43 735.758 1161.49 709.492L1163.53 692.017L1219.22 686.231C1249.85 683.047 1274.9 679.609 1274.9 678.589C1274.9 677.572 1149.88 677.129 997.064 677.606C826.9 678.14 719.953 677.349 721.106 675.566C722.144 673.964 741.103 661.597 763.241 648.081C785.379 634.569 803.947 622.528 804.502 621.329C805.057 620.129 819.84 601.515 837.353 579.961C854.866 558.408 872.464 536.751 876.459 531.834L883.722 522.896L893.492 533.884C915.318 558.436 938.859 604.171 942.302 628.716C943.222 635.269 945.377 640.631 947.088 640.631C953.31 640.631 940.929 598.965 926.523 571.425C921.517 561.855 910.798 545.652 902.703 535.417L887.986 516.811L902.913 498.272C914.697 483.635 916.05 480.853 909.349 485.051C904.681 487.974 898.475 493.845 895.561 498.096C892.631 502.369 888.627 504.865 886.613 503.672C884.514 502.435 883.88 502.937 885.121 504.856C886.31 506.695 848.22 546.013 800.238 592.466L713.196 676.737L713.994 409.085C714.434 261.875 713.938 141.433 712.89 141.433C711.846 141.433 708.298 164.67 705.009 193.07ZM647.796 221.095C642.323 227.399 646.991 236.13 655.227 235.003C663.295 233.898 666.574 223.487 660.092 219.562C654.005 215.873 652.126 216.109 647.796 221.095ZM769.821 218.862C764.069 221.082 764.686 232.303 770.685 234.501C778.645 237.421 785.924 229.82 781.956 222.733C778.536 216.63 776.937 216.118 769.821 218.862ZM584.213 229.594C577.124 233.54 576.71 246.02 583.49 251.398C587.331 254.443 590.425 254.55 596.631 251.847C606.657 247.483 607.701 234.215 598.391 229.452C590.829 225.584 591.427 225.578 584.213 229.594ZM828.371 232.253C820.208 240.055 819.922 243.025 826.722 249.527C833.322 255.831 839.419 255.781 846.13 249.37C852.862 242.934 851.498 236.077 842.333 230.272C835.901 226.196 834.501 226.394 828.371 232.253ZM726.293 249.662C726.293 253.37 730.301 254.459 743.931 254.459C790.53 254.459 865.913 274.772 920.436 302.021C1002.04 342.808 1071 410.595 1113.18 491.5C1136.29 535.825 1155.09 602.287 1157.35 647.695C1157.84 657.626 1159.45 665.748 1160.93 665.748C1164.66 665.748 1160.54 626.186 1153.03 589.807C1126.61 461.906 1037.54 350.22 914.92 291.233C868.256 268.785 804.653 251.819 748.468 246.833C729.871 245.182 726.293 245.64 726.293 249.662ZM522.598 252.911C518.961 257.1 519.106 258.726 523.465 262.895C530.511 269.627 539.798 265.887 538.452 256.861C537.167 248.262 528.508 246.105 522.598 252.911ZM890.548 259.169C890.548 265.448 892.191 267.018 898.761 267.018C905.331 267.018 906.974 265.448 906.974 259.169C906.974 252.889 905.331 251.32 898.761 251.32C892.191 251.32 890.548 252.889 890.548 259.169ZM695.558 268.848C692.789 288.153 691.954 288.995 675.542 288.995C667.72 288.995 648.959 291.177 633.851 293.846C553.648 308.012 477.602 345.514 421.062 398.79C385.957 431.863 364.525 460.336 341.825 504.058C319.349 547.347 307.125 585.274 301.665 628.666C297.545 661.384 296.727 662.461 275.897 662.564C267.589 662.608 267.385 662.137 268.735 646.125C283.084 475.93 403.148 329.141 572.235 275.068C611.394 262.544 649.948 255.153 678.285 254.742L697.621 254.459L695.558 268.848ZM464.143 273.925C458.459 279.356 459.297 291.34 465.595 294.709C473.748 299.07 483.029 295.434 485.243 287.011C488.702 273.834 473.863 264.635 464.143 273.925ZM944.986 275.09C938.1 281.673 939.388 288.496 948.619 294.345C955.068 298.429 956.461 298.213 962.82 292.135C969.18 286.056 969.407 284.725 965.133 278.562C959.013 269.74 951.875 268.509 944.986 275.09ZM373.701 287.94C369.86 291.61 371.312 294.492 377.814 296.119C383.53 297.547 393.276 319.465 389.712 322.871C388.986 323.568 381.634 319.694 373.375 314.263C356.891 303.425 354.913 305.456 363.29 324.617C370.662 341.477 369.545 342.635 353.957 334.309L339.697 326.692L336.195 334.039C333.051 340.629 333.422 341.254 339.792 340.089C344.168 339.288 352.354 342.576 361.145 348.66C368.983 354.088 376.168 357.796 377.104 356.898C378.043 356 376.434 348.594 373.523 340.437C370.616 332.281 368.858 325.013 369.614 324.29C370.373 323.565 376.565 326.592 383.379 331.019C390.192 335.442 396.447 338.412 397.274 337.621C398.106 336.827 396.207 327.078 393.056 315.955C387.6 296.69 378.431 283.419 373.701 287.94ZM761.474 293.629C778.109 296.09 797.846 299.679 805.333 301.604C812.816 303.531 819.633 304.442 820.48 303.632C823.076 301.155 778.612 292.543 754.217 290.8C732.811 289.271 733.31 289.466 761.474 293.629ZM691.652 303.908C690.627 310.385 688.022 330.516 685.867 348.647L681.945 381.613L655.664 386.546C619.028 393.421 597.557 400.558 566.168 416.3C479.238 459.887 420.372 537.112 404.144 628.858C401.417 644.273 399.019 650.05 395.346 650.05C390.215 650.05 390.274 645.344 395.862 609.235C396.923 602.388 395.865 604.165 393.063 613.944C390.586 622.578 388.418 634.233 388.244 639.846C388.07 645.46 387.501 650.05 386.982 650.05C386.463 650.05 368.441 652.135 346.937 654.684C325.433 657.237 307.115 658.63 306.231 657.789C305.351 656.945 306.379 643.686 308.521 628.321C331.796 461.24 465.299 327.392 639.238 296.753C651.886 294.524 669.274 292.574 677.878 292.417L693.521 292.135L691.652 303.908ZM420.98 307.713C414.564 311.503 418.352 321.845 426.561 322.966C432.474 323.769 433.92 322.447 433.92 316.237C433.92 307.902 427.648 303.773 420.98 307.713ZM829.774 307.833C838.805 311.54 843.992 311.54 837.987 307.833C835.277 306.159 830.842 304.866 828.131 304.963C824.883 305.076 825.441 306.052 829.774 307.833ZM993.477 312.787C992.383 315.509 993.907 320.052 996.864 322.878C1001.84 327.634 1002.64 327.634 1007.62 322.878C1014.33 316.457 1011.25 307.833 1002.24 307.833C998.513 307.833 994.571 310.062 993.477 312.787ZM1046.88 312.14C1048.01 314.934 1042.06 319.98 1029.95 326.513C1017.42 333.273 1012.38 337.615 1014.6 339.74C1016.82 341.863 1021.25 341.251 1028.09 337.872C1041.11 331.439 1067.94 327.703 1067.94 332.328C1067.94 334.18 1060.5 339.571 1051.39 344.309C1032.69 354.035 1030.62 362.33 1046.62 363.488C1054.16 364.035 1054.99 363.62 1050.18 361.705C1044.81 359.564 1046.35 357.777 1061.08 349.118C1082.02 336.802 1082.68 329.038 1062.98 326.651C1051.11 325.21 1050.49 324.711 1056.45 321.336L1063.02 317.616L1056.45 312.825C1048.21 306.815 1044.64 306.561 1046.88 312.14ZM776.391 329.264C774.134 338.463 772.406 349.059 772.554 352.811C772.768 358.308 773.76 357.58 777.649 349.056C780.307 343.238 782.035 332.642 781.49 325.509L780.498 312.542L776.391 329.264ZM857.697 317.251C860.408 318.925 864.103 320.294 865.91 320.294C867.717 320.294 866.978 318.925 864.268 317.251C861.557 315.578 857.862 314.209 856.055 314.209C854.248 314.209 854.987 315.578 857.697 317.251ZM647.944 328.24C647.835 335.147 649.777 345.037 652.26 350.217L656.774 359.636L656.787 350.217C656.794 345.037 654.852 335.147 652.471 328.24L648.141 315.682L647.944 328.24ZM877.681 324.702C881.061 327.593 900.404 336.086 900.404 334.679C900.404 332.871 882.191 323.531 878.666 323.531C877.372 323.531 876.928 324.058 877.681 324.702ZM582.009 330.896C581.864 332.356 584.065 341.163 586.894 350.462C592.11 367.617 598.211 375.676 598.132 365.316C598.089 359.47 582.472 326.136 582.009 330.896ZM838.457 345.853C830.983 363.036 829.429 372.169 834.485 369.184C837.934 367.146 848.992 333.003 846.863 330.968C846.111 330.249 842.33 336.949 838.457 345.853ZM910.259 340.579C910.259 341.442 913.216 343.659 916.829 345.508C920.443 347.357 923.399 348.161 923.399 347.297C923.399 346.434 920.443 344.217 916.829 342.368C913.216 340.519 910.259 339.715 910.259 340.579ZM318.836 361.991C318.741 374.361 318.383 374.895 313.945 369.284C308.695 362.656 308.416 362.747 302.884 372.907C299.799 378.581 299.93 379.591 303.574 378.254C306.382 377.224 312.801 383.171 320.666 394.084C334.887 413.82 342.998 413.32 332.121 393.381C324.142 378.75 319.395 356.578 324.638 358.431C326.513 359.093 333.028 365.906 339.112 373.57C345.196 381.234 351.648 387.591 353.448 387.698C355.248 387.805 357.048 382.948 357.453 376.904C357.985 368.889 357.472 367.554 355.557 371.981C353.244 377.322 351.664 376.289 342.348 363.347C328.261 343.781 318.984 343.244 318.836 361.991ZM1070.45 359.84C1052.35 369.231 1056.65 389.732 1077.65 394.14C1085.12 395.71 1086.42 397.371 1085.14 403.738C1083.84 410.259 1084.87 411.44 1091.85 411.44C1100.27 411.44 1105.19 405.468 1101.31 399.946C1100.12 398.253 1093.28 394.671 1086.11 391.98C1070.61 386.175 1064.56 378.882 1070.51 373.193C1073.74 370.107 1076.53 370.411 1084.09 374.675C1106.23 387.18 1127.18 376.917 1109.38 362.28C1099.07 353.806 1083.92 352.858 1070.45 359.84ZM522.736 362.116C522.522 366.578 535.157 388.216 540.403 392.376C544.943 395.977 545.153 395.418 542.246 387.459C538.908 378.317 522.952 357.589 522.736 362.116ZM894.237 375.736C883.446 391.309 881.889 395.742 887.207 395.742C890.782 395.742 908.281 364.55 905.955 362.327C905.154 361.561 899.881 367.595 894.237 375.736ZM1106.93 365.419C1111.66 370.854 1108.43 373.777 1097.78 373.717C1087.05 373.654 1079.56 369.237 1082.5 364.697C1085.65 359.828 1102.51 360.327 1106.93 365.419ZM962.82 374.951C962.82 375.601 965.409 378.075 968.569 380.445C973.78 384.348 973.895 384.238 969.811 379.259C965.518 374.028 962.82 372.367 962.82 374.951ZM743.205 384.693C744.076 385.525 755.777 388.301 769.213 390.866C782.646 393.428 797.334 396.319 801.851 397.289L810.063 399.057L801.851 395.632C788.093 389.889 739.076 380.75 743.205 384.693ZM680.302 392.376C680.302 399.701 673.515 447.203 672.303 448.377C671.83 448.836 662.717 451.354 652.054 453.972C624.202 460.81 589.975 477.095 565.179 495.305L543.681 511.091L533.971 503.49C487.5 467.114 501.655 483.393 571.894 547.096C634.202 603.612 704.658 671.333 696.728 667.089C694.017 665.638 676.728 655.149 658.305 643.78L624.81 623.112L579.463 628.607C554.522 631.63 529.391 634.157 523.616 634.226L513.117 634.352L519.106 617.718C527.213 595.195 536.428 578.451 550.238 561.161C556.602 553.196 560.458 545.881 558.809 544.908C555.304 542.835 532.844 570.677 523.379 588.828C519.779 595.735 514.211 609.379 511.008 619.153C505.568 635.737 504.428 637.002 493.84 638.182C482.523 639.444 482.5 639.422 484.086 628.126C487.46 604.083 513.091 554.672 532.985 533.853C538.044 528.56 540.455 523.731 538.593 522.629C536.793 521.568 533.166 523.31 530.534 526.506C505.699 556.64 489.52 587.041 481.228 619.15L475.838 640.031L462.27 641.815C454.806 642.798 439.462 644.527 428.167 645.661L407.632 647.724L409.58 637.112C421.377 572.812 446.863 523.178 491.166 478.225C539.772 428.908 609.206 394.837 677.838 386.618C679.195 386.455 680.302 389.045 680.302 392.376ZM472.746 405.343C483.663 421.125 492.168 429.028 495.16 426.171C496.231 425.144 489.402 416.818 479.98 407.669L462.848 391.032L472.746 405.343ZM948.488 408.165C932.854 424.136 928.202 433.345 939.03 426.883C944.273 423.753 967.814 392.602 964.939 392.602C964.269 392.602 956.865 399.606 948.488 408.165ZM824.505 405.449C832.445 408.815 839.531 411.013 840.244 410.328C841.666 408.972 816.351 398.743 812.462 399.104C811.141 399.223 816.561 402.08 824.505 405.449ZM857.697 419.069C857.697 419.932 860.654 422.149 864.268 423.998C867.881 425.847 870.838 426.651 870.838 425.788C870.838 424.924 867.881 422.708 864.268 420.858C860.654 419.009 857.697 418.206 857.697 419.069ZM874.123 428.237C874.123 428.962 877.999 431.982 882.74 434.952C887.48 437.919 890.354 438.795 889.126 436.899C886.784 433.276 874.123 425.964 874.123 428.237ZM289.375 442.836C285.762 446.289 282.805 450.427 282.805 452.032C282.805 456.418 292.516 464.813 297.588 464.813C303.216 464.813 312.371 456.226 312.371 450.949C312.371 446.88 302.171 436.557 298.15 436.557C296.938 436.557 292.989 439.382 289.375 442.836ZM429.57 451.95C438.92 460.75 448.391 467.953 450.611 467.953C456.62 467.953 444.524 456.179 427.35 445.307L412.567 435.947L429.57 451.95ZM1120.43 442.908C1115.07 448.029 1114.48 450.493 1117.36 455.642C1122.09 464.081 1128.33 466.075 1136.67 461.805C1144.78 457.661 1145.54 448.371 1138.34 441.489C1131.56 435.015 1128.43 435.263 1120.43 442.908ZM994.275 451.485C977.794 463.463 969.115 474.875 981.329 468.505C987.495 465.29 1014.72 439.684 1011.94 439.712C1011.12 439.721 1003.17 445.018 994.275 451.485ZM752.574 453.765C752.574 456.675 755.577 458.534 760.271 458.534C784.364 458.534 852.392 491.192 869.701 511.069C872.3 514.055 874.185 514.35 875.7 512.008C881.242 503.437 824.84 468.863 787.068 457.677C758.202 449.128 752.574 448.49 752.574 453.765ZM915.187 458.534C918.455 461.987 921.872 464.813 922.775 464.813C923.679 464.813 921.74 461.987 918.472 458.534C915.203 455.08 911.786 452.255 910.883 452.255C909.98 452.255 911.918 455.08 915.187 458.534ZM671.061 470.571C669.905 482.163 669.241 482.759 653.052 486.724C633.19 491.588 599.617 507.801 582.377 520.852L570.107 530.139L561.145 523.901C556.214 520.469 552.183 516.538 552.183 515.163C552.183 511.172 585.356 488.332 604.916 478.857C627.855 467.739 653.377 459.055 663.962 458.763C671.636 458.553 672.171 459.441 671.061 470.571ZM468.101 471.877L461.843 478.941L469.235 472.96C473.301 469.67 476.626 466.493 476.626 465.896C476.626 463.384 473.981 465.24 468.101 471.877ZM954.608 471.092C957.876 474.546 961.293 477.371 962.196 477.371C963.1 477.371 961.161 474.546 957.893 471.092C954.624 467.639 951.208 464.813 950.304 464.813C949.401 464.813 951.339 467.639 954.608 471.092ZM938.182 480.511C941.451 483.965 944.867 486.79 945.771 486.79C946.674 486.79 944.736 483.965 941.467 480.511C938.199 477.057 934.782 474.232 933.879 474.232C932.975 474.232 934.914 477.057 938.182 480.511ZM453.21 489.145C449.126 494.124 449.241 494.234 454.452 490.332C459.925 486.228 461.662 483.651 458.959 483.651C458.279 483.651 455.69 486.122 453.21 489.145ZM755.859 486.636C755.859 488.652 757.163 489.531 758.76 488.589C761.92 486.721 790.826 495.562 808.707 503.867C817.925 508.146 818.785 508.209 813.546 504.212C807.182 499.361 779.995 488.759 764.207 484.972C758.839 483.685 755.859 484.279 755.859 486.636ZM966.106 484.837C966.106 485.487 968.694 487.961 971.854 490.332C977.065 494.234 977.18 494.124 973.096 489.145C968.803 483.914 966.106 482.254 966.106 484.837ZM662.126 542.204C657.855 577.886 655.24 590.313 652.234 589.207C645.004 586.558 578.464 536.305 578.464 533.495C578.464 530.01 602.557 513.216 619.488 504.896C639.61 495.01 665.358 487.261 666.725 490.683C667.388 492.344 665.319 515.53 662.126 542.204ZM266.38 500.699C266.38 507.27 267.947 508.768 274.822 508.768C281.695 508.768 283.068 507.455 282.214 501.703C281.537 497.164 278.521 494.281 273.771 493.635C267.753 492.818 266.38 494.131 266.38 500.699ZM381.358 494.344C381.358 496.275 411.657 515.047 414.771 515.047C422.461 515.047 415.622 507.967 401.177 500.972C384.949 493.113 381.358 491.911 381.358 494.344ZM1147.29 495.848C1140.8 499.773 1144.08 510.184 1152.15 511.289C1160.39 512.416 1165.05 503.685 1159.58 497.38C1155.25 492.395 1153.37 492.159 1147.29 495.848ZM984.052 507.983C989.114 515.32 993.884 521.326 994.65 521.326C997.022 521.326 984.443 502.218 979.509 498.322C976.943 496.297 978.986 500.645 984.052 507.983ZM1028.29 502.413C1021.83 505.675 1014.65 510.538 1012.32 513.223C1008.57 517.54 1009.16 517.741 1017.48 514.968C1027.57 511.603 1048.76 496.416 1043.31 496.46C1041.5 496.476 1034.74 499.154 1028.29 502.413ZM821.561 509.866C821.561 510.592 825.438 513.612 830.178 516.582C834.918 519.549 837.793 520.425 836.564 518.529C834.222 514.906 821.561 507.593 821.561 509.866ZM418.979 540.456C416.088 545.796 414.308 550.722 415.021 551.403C415.733 552.085 418.775 547.718 421.781 541.693C428.535 528.155 426.196 527.119 418.979 540.456ZM1004.52 541.693C1007.53 547.718 1010.57 552.085 1011.29 551.403C1012.79 549.969 1002.82 530.745 1000.57 530.745C999.742 530.745 1001.52 535.671 1004.52 541.693ZM247.582 550.367C240.349 559.309 240.181 562.219 246.551 568.307C250.23 571.823 254.613 574.699 256.291 574.699C260.88 574.699 269.665 565.419 269.665 560.571C269.665 555.146 260.664 546.443 255.049 546.443C252.691 546.443 249.33 548.21 247.582 550.367ZM363.29 557.501C380.261 565.139 393.027 567.481 389.706 562.348C387.863 559.501 355.238 549.319 349.644 549.843C348.116 549.987 354.256 553.432 363.29 557.501ZM1159.84 554.386C1156.66 558.056 1156.55 561.014 1159.37 566.945C1164 576.646 1177.83 577.516 1182.92 568.42C1190.67 554.581 1170.39 542.245 1159.84 554.386ZM1054.14 557.701C1045.65 560.198 1037.8 563.632 1036.7 565.331C1033.17 570.794 1046.12 568.555 1063.02 560.778C1081.47 552.286 1077.38 550.867 1054.14 557.701ZM404.676 573.032C400.885 582.712 397.859 592.347 397.954 594.441C398.05 596.532 401.673 589.113 406.01 577.949C410.346 566.788 413.368 557.152 412.731 556.54C412.09 555.928 408.464 563.35 404.676 573.032ZM1012.43 555.862C1012.31 556.725 1015.93 566.615 1020.48 577.839C1025.03 589.063 1027.85 594.008 1026.74 588.828C1024.85 579.971 1012.91 552.461 1012.43 555.862ZM0.286804 613.759C0.286804 627.881 4.61986 635.033 8.02979 626.537C9.21242 623.596 12.0409 622.666 15.7662 623.994C24.0643 626.952 76.1627 660.21 74.6976 661.61C73.0714 663.167 13.2958 656.621 9.69532 654.496C8.1349 653.573 6.857 650.078 6.857 646.725C6.857 643.372 5.37871 640.631 3.5719 640.631C1.69611 640.631 0.286804 650.05 0.286804 662.608C0.286804 675.167 1.69611 684.586 3.5719 684.586C5.37871 684.586 6.857 682.422 6.857 679.779C6.857 669.902 17.2642 671.707 40.5194 685.619C80.9984 709.838 81.3236 710.362 54.4909 708.133C17.3069 705.04 9.44565 703.122 7.69141 696.717C6.811 693.499 4.78411 690.865 3.18756 690.865C-0.836689 690.865 -0.478624 727.718 3.5719 730.11C5.37871 731.177 6.857 729.802 6.857 727.058C6.857 724.311 8.86092 721.328 11.3116 720.431C13.7623 719.533 37.6548 720.993 64.4086 723.68C107.401 727.994 119.759 728.145 114.993 724.295C114.237 723.686 96.2544 712.431 75.0228 699.282C53.7912 686.13 36.4229 674.909 36.4229 674.344C36.4229 673.779 53.7288 675.088 74.8782 677.258C111.507 681.01 121.031 680.642 113.199 675.782C40.2073 630.481 9.84644 610.146 8.3123 605.537C4.82024 595.016 0.286804 599.662 0.286804 613.759ZM1029.17 602.956C1029.1 605.546 1031 617.555 1033.39 629.643C1036.18 643.702 1037.75 647.661 1037.75 640.631C1037.75 629.988 1029.44 593.471 1029.17 602.956ZM235.664 613.213C228.457 618.249 231.689 628.073 240.552 628.073C248.791 628.073 252.155 619.411 246.147 613.671C242.274 609.97 240.421 609.888 235.664 613.213ZM346.865 616.905C363.047 622.33 380.961 623.297 375.911 618.472C374.003 616.648 363.727 614.557 353.08 613.825L333.724 612.5L346.865 616.905ZM1180.14 615.153C1173.65 619.078 1176.93 629.489 1185 630.594C1193.24 631.721 1197.91 622.99 1192.43 616.685C1188.1 611.7 1186.22 611.464 1180.14 615.153ZM1311.04 653.268V694.161L1319.4 697.197C1323.99 698.868 1331.67 701.172 1336.44 702.318C1344.92 704.35 1344.84 704.12 1333.5 693.282C1322.42 682.689 1317.61 670.891 1317.61 654.27C1317.61 643.673 1323.89 642.487 1347.07 648.703L1367.23 654.109L1366.24 665.299C1365.45 674.209 1363.57 676.906 1357.03 678.536C1348.31 680.708 1348.71 680.984 1369.84 687.449C1387.16 692.749 1393.03 691.829 1384.05 685.226C1375.28 678.774 1369.18 654.122 1377.04 656.926C1379.59 657.833 1389.43 660.455 1398.92 662.756L1416.16 666.935V681.782C1416.16 701.483 1413.74 706.563 1404.31 706.563C1399.99 706.563 1396.45 707.976 1396.45 709.703C1396.45 711.429 1398.49 712.842 1400.97 712.842C1403.45 712.842 1410.11 713.724 1415.75 714.804L1426.02 716.767V678.699C1426.02 655.412 1424.74 640.631 1422.73 640.631C1420.93 640.631 1419.45 642.75 1419.45 645.341C1419.45 650.775 1408.73 651.522 1394.48 647.083C1389.24 645.454 1369.8 639.743 1351.28 634.393C1323.51 626.368 1317.61 623.586 1317.61 618.519C1317.61 615.141 1316.13 612.375 1314.33 612.375C1312.31 612.375 1311.04 628.098 1311.04 653.268ZM1056.45 620.111L1046.59 624.424L1056.45 624.437C1061.87 624.443 1072.21 622.588 1079.44 620.312L1092.58 616.174L1079.44 615.985C1072.21 615.882 1061.87 617.737 1056.45 620.111ZM264.737 708.918C267.878 735.724 276.767 782.45 278.426 780.865C279.221 780.105 277.618 767.669 274.865 753.227C272.112 738.785 269.455 718.848 268.959 708.918C268.466 698.987 266.836 690.865 265.342 690.865C263.847 690.865 263.574 698.987 264.737 708.918ZM881.8 848.674C880.598 850.53 881.252 851.026 883.305 849.814C885.318 848.624 890.22 851.924 894.323 857.227C898.39 862.482 905.486 869.126 910.095 871.992C919.349 877.744 919.276 877.625 898.984 853.374C891.938 844.957 887.332 836.505 888.374 833.912C889.556 830.967 888.646 829.903 885.824 830.935C883.407 831.824 878.387 828.449 874.639 823.419C869.323 816.286 868.702 813.46 871.8 810.475C874.905 807.489 874.609 807.078 870.447 808.594C866.511 810.022 857.687 801.414 836.564 775.543C820.852 756.304 807.281 738.775 806.404 736.593C805.215 733.63 817.957 731.237 856.715 727.156C885.259 724.148 916.379 720.616 925.863 719.31C942.18 717.062 943.11 717.304 943.11 723.815C943.11 732.973 932.91 760.878 922.135 781.198C917.348 790.227 914.27 797.612 915.292 797.612C918.728 797.612 939.601 752.269 944.201 734.819L948.75 717.552L974.676 714.073C988.934 712.158 1008.56 709.731 1018.29 708.676L1035.97 706.758L1033.94 723.143C1021.7 821.875 945.551 918.047 845.174 961.543C821.558 971.778 767.479 985.988 752.154 985.988C746.057 985.988 742.719 984.362 742.719 981.389C742.719 975.282 750.846 971.559 769.969 968.909C778.635 967.706 791.2 964.67 797.892 962.165C804.587 959.656 806.368 958.391 801.851 959.349C774.709 965.119 747.555 969.678 746.477 968.648C745.4 967.618 751.71 911.438 754.407 898.079C754.93 895.489 755.468 889.744 755.606 885.31C755.826 878.34 758.346 876.501 774.216 871.719C784.312 868.677 791.933 865.578 791.154 864.834C790.372 864.087 783.405 865.609 775.668 868.218C767.932 870.827 761.05 872.962 760.373 872.962C757.814 872.962 759.604 847.924 765.156 806.076L770.905 762.737L749.279 730.725C737.384 713.118 726.507 696.595 725.111 694.005C723.711 691.414 758.872 724.418 803.244 767.343C847.615 810.271 882.966 846.869 881.8 848.674ZM299.231 709.357C299.231 716.073 301.553 733.275 304.395 747.585C333.343 893.436 437.852 1006.54 585.034 1051.3C622.264 1062.62 693.442 1072.92 693.442 1066.99C693.442 1065.61 687.723 1064.48 680.732 1064.48C644.13 1064.48 579.315 1047.82 534.115 1026.8C408.894 968.551 320.613 849.029 307.276 719.69C304.819 695.854 299.231 688.677 299.231 709.357ZM387.032 719.906C403.385 843.792 499.096 950.909 621.863 982.726C659.143 992.39 683.587 995.357 683.587 990.224C683.587 987.652 679.878 985.988 674.152 985.988C658.827 985.988 604.748 971.778 581.132 961.543C510.784 931.061 450.529 874.184 418.591 808.117C406.611 783.336 391.213 731.294 391.213 715.58C391.213 710.619 389.876 706.563 388.24 706.563C386.604 706.563 386.062 712.569 387.032 719.906ZM401.069 711.068C401.069 719.479 410.569 758.291 416.873 775.634C453.571 876.598 543.98 950.203 656.196 970.482C667.329 972.491 678.416 973.452 680.834 972.617C683.252 971.778 679.317 970.089 672.089 968.862C598.966 956.432 541.204 928.169 494.336 881.894C448.394 836.533 420.825 783.443 409.406 718.336C407.439 707.125 401.069 701.571 401.069 711.068ZM478.886 723.046C484.556 747.409 506.327 797.612 511.221 797.612C512.131 797.612 508.958 790.227 504.172 781.198C493.189 760.489 483.196 732.92 483.196 723.338C483.196 719.294 481.856 715.982 480.22 715.982C478.581 715.982 477.979 719.159 478.886 723.046ZM506.192 723.338C506.192 745.466 548.402 817.856 557.998 812.186C560.363 810.789 559.036 807.586 554.161 802.927C538.294 787.763 509.753 729.451 514.562 722.019C515.591 720.424 514.129 719.121 511.313 719.121C508.498 719.121 506.192 721.021 506.192 723.338ZM232.185 730.502C230.966 733.532 231.975 737.821 234.468 740.201C240.749 746.207 250.536 741.874 249.307 733.636C248.046 725.193 235.253 722.851 232.185 730.502ZM1177.44 733.495C1176.35 736.217 1177.57 740.471 1180.16 742.942C1186.5 749.004 1197.48 741.997 1194.25 733.953C1191.53 727.174 1180.1 726.864 1177.44 733.495ZM346.865 736.301L333.724 740.439L346.865 740.628C354.092 740.731 364.44 738.876 369.86 736.502L379.716 732.188L369.86 732.176C364.44 732.17 354.092 734.025 346.865 736.301ZM1056.45 739.642C1061.87 742.015 1072.95 743.893 1081.08 743.814L1095.87 743.676L1079.44 739.309C1070.41 736.907 1059.32 735.027 1054.8 735.137C1046.78 735.325 1046.82 735.429 1056.45 739.642ZM243.384 788.193C235.634 802.032 255.917 814.368 266.462 802.227C269.648 798.557 269.76 795.599 266.932 789.668C262.306 779.967 248.476 779.097 243.384 788.193ZM1161.8 786.846C1155.21 793.153 1155.26 798.981 1161.97 805.395C1168.7 811.828 1175.88 810.525 1181.95 801.765C1186.21 795.618 1186.01 794.28 1179.88 788.422C1171.71 780.62 1168.61 780.347 1161.8 786.846ZM279.983 788.193C279.983 790.783 281.251 795.728 282.805 799.181C284.586 803.14 285.627 803.718 285.627 800.751C285.627 798.161 284.359 793.216 282.805 789.763C281.025 785.804 279.983 785.226 279.983 788.193ZM1142.09 793.125C1140.89 797.728 1140.53 802.098 1141.3 802.839C1142.08 803.577 1143.7 800.418 1144.91 795.819C1146.12 791.216 1146.47 786.846 1145.7 786.105C1144.92 785.367 1143.3 788.526 1142.09 793.125ZM363.29 795.835C354.256 799.995 348.116 803.508 349.644 803.643C355.281 804.145 387.869 793.963 389.706 791.125C393.145 785.804 379.985 788.149 363.29 795.835ZM1036.6 794.265C1038.73 797.561 1074.46 808.129 1076.59 806.095C1078.37 804.39 1045.48 791.332 1039.39 791.332C1036.81 791.332 1035.56 792.651 1036.6 794.265ZM899.983 815.664C895.9 820.644 896.015 820.754 901.225 816.851C904.385 814.481 906.974 812.007 906.974 811.357C906.974 808.773 904.277 810.434 899.983 815.664ZM1130.73 826.217C1128.7 831.764 1127.62 836.854 1128.32 837.526C1129.03 838.197 1131.26 834.207 1133.28 828.659C1135.3 823.112 1136.39 818.022 1135.68 817.35C1134.98 816.678 1132.75 820.669 1130.73 826.217ZM292.762 827.438C292.762 829.165 294.195 832.697 295.946 835.287C297.697 837.877 299.129 838.584 299.129 836.857C299.129 835.13 297.697 831.598 295.946 829.008C294.195 826.418 292.762 825.711 292.762 827.438ZM847.422 831.362C843.338 836.342 843.453 836.452 848.663 832.549C851.824 830.179 854.412 827.705 854.412 827.055C854.412 824.471 851.715 826.132 847.422 831.362ZM408.115 841.786C397.83 845.723 380.586 857.575 382.495 859.396C384.699 861.506 408.983 849.155 414.009 843.365C418.871 837.767 418.72 837.726 408.115 841.786ZM299.231 842.69C299.231 846.103 322.118 888.66 323.951 888.66C324.854 888.66 320.229 878.419 313.669 865.898C301.366 842.411 299.231 838.979 299.231 842.69ZM1008.81 844.652C1008.81 848.068 1041.45 864.793 1043.78 862.57C1045.45 860.972 1015.66 841.566 1011.54 841.566C1010.04 841.566 1008.81 842.954 1008.81 844.652ZM1112.98 865.223C1106.31 878.114 1101.56 888.66 1102.42 888.66C1104.62 888.66 1127.77 844.323 1126.31 842.926C1125.65 842.298 1119.66 852.335 1112.98 865.223ZM265.036 849.808C263.817 852.837 264.826 857.126 267.319 859.506C273.6 865.512 283.387 861.179 282.158 852.941C280.897 844.499 268.104 842.156 265.036 849.808ZM1143.5 855.694C1143.5 861.974 1145.14 863.543 1151.71 863.543C1158.28 863.543 1159.93 861.974 1159.93 855.694C1159.93 849.415 1158.28 847.845 1151.71 847.845C1145.14 847.845 1143.5 849.415 1143.5 855.694ZM805.136 857.264C798.812 860.573 794.821 863.339 796.266 863.412C799.745 863.587 818.276 854.379 818.276 852.473C818.276 850.42 818.082 850.489 805.136 857.264ZM429.974 901.153L412.567 917.526L427.54 908.066C444.054 897.633 452.323 889.505 449.333 886.645C448.259 885.621 439.547 892.148 429.974 901.153ZM976.227 894.18C978.211 897.219 987.462 904.383 996.788 910.104L1013.74 920.509L996.736 904.584C979.647 888.579 969.056 883.207 976.227 894.18ZM328.797 898.079C330.732 901.533 333.051 904.358 333.954 904.358C334.858 904.358 334.017 901.533 332.082 898.079C330.147 894.626 327.827 891.8 326.924 891.8C326.021 891.8 326.862 894.626 328.797 898.079ZM914.874 898.864L908.616 905.928L916.008 899.947C922.953 894.327 924.894 891.8 922.266 891.8C921.642 891.8 918.317 894.977 914.874 898.864ZM289.375 904.358C285.762 907.812 282.805 911.95 282.805 913.554C282.805 917.94 292.516 926.336 297.588 926.336C303.216 926.336 312.371 917.749 312.371 912.471C312.371 908.402 302.171 898.079 298.15 898.079C296.938 898.079 292.989 900.905 289.375 904.358ZM1120.02 904.823C1114.13 910.452 1113.94 911.799 1118.19 917.931C1124.1 926.449 1130.33 927.774 1138.3 922.204C1142.77 919.083 1143.89 915.699 1142.38 909.931C1139.59 899.31 1128.45 896.767 1120.02 904.823ZM880.693 923.475C873.617 929.007 873.479 929.431 879.688 926.53C883.653 924.678 887.805 921.758 888.916 920.041C891.882 915.454 889.891 916.286 880.693 923.475ZM486.301 930.518C483.495 932.533 476.258 941.249 470.214 949.883L459.228 965.581L473.114 953.022C486.419 940.988 494.809 930.109 492.49 927.893C491.892 927.318 489.106 928.499 486.301 930.518ZM862.431 934.357C856.308 939.048 856.347 939.104 863.446 935.817C867.513 933.933 870.838 931.736 870.838 930.935C870.838 928.533 869.133 929.227 862.431 934.357ZM932.88 934.97C934.605 937.99 942.289 946.115 949.953 953.022L963.885 965.581L956.247 954.592C946.283 940.263 936.113 929.475 932.568 929.475C931.011 929.475 931.152 931.949 932.88 934.97ZM358.362 940.081C358.362 940.731 360.948 943.205 364.111 945.575C369.322 949.478 369.437 949.368 365.353 944.388C361.06 939.158 358.362 937.497 358.362 940.081ZM324.526 949.384C321.98 955.722 327.144 961.634 334.118 960.363C337.532 959.741 340.764 956.09 341.346 952.206C342.187 946.555 340.804 945.173 334.306 945.173C329.854 945.173 325.452 947.066 324.526 949.384ZM828.131 949.883C823.614 952.35 821.397 954.369 823.204 954.369C825.011 954.369 830.185 952.35 834.702 949.883C839.219 947.415 841.436 945.396 839.629 945.396C837.823 945.396 832.648 947.415 828.131 949.883ZM1084.35 949.905C1080.71 954.093 1080.86 955.719 1085.22 959.889C1092.26 966.62 1101.55 962.881 1100.2 953.854C1098.92 945.255 1090.26 943.098 1084.35 949.905ZM987.147 961.656L980.888 968.72L988.28 962.739C995.225 957.12 997.166 954.592 994.538 954.592C993.914 954.592 990.589 957.769 987.147 961.656ZM394.499 978.139C406.138 989.363 416.4 998.547 417.304 998.547C418.207 998.547 409.423 989.363 397.784 978.139C386.145 966.915 375.882 957.732 374.978 957.732C374.075 957.732 382.859 966.915 394.499 978.139ZM1038.2 969.505L1026.88 981.279L1039.2 970.46C1045.98 964.507 1051.52 959.21 1051.52 958.686C1051.52 956.287 1048.74 958.548 1038.2 969.505ZM527.381 976.88C522.709 985.687 519.546 993.52 520.351 994.286C522.023 995.884 542.328 967.417 542.328 963.474C542.328 956.052 534.884 962.73 527.381 976.88ZM883.955 968.664C888.2 979.332 900.555 996.308 902.634 994.321C904.861 992.195 891.892 968.984 885.755 964.118C881.025 960.366 880.841 960.831 883.955 968.664ZM1060.54 973.951C1054.31 978.29 1051.52 983.031 1051.52 989.279C1051.52 999.639 1059.05 1004.83 1074.1 1004.83C1085.18 1004.83 1088.54 1007.8 1084.5 1014.03C1082.67 1016.87 1078.81 1017.52 1072.65 1016.04C1064.21 1014.02 1063.86 1014.29 1068.08 1019.54C1070.6 1022.67 1073.08 1025.83 1073.6 1026.56C1076.04 1029.97 1090.94 1012.3 1090.94 1006C1090.94 1000.4 1088.25 998.129 1078.62 995.573C1071.85 993.774 1064.54 992.296 1062.39 992.286C1056.07 992.258 1053.9 986.101 1058.38 980.94C1060.98 977.945 1065.37 976.849 1070.16 977.998C1078.43 979.979 1080.31 976.193 1073.68 970.934C1070.73 968.592 1067.01 969.449 1060.54 973.951ZM330.153 973.251C316.776 976.306 312.371 979.119 312.371 984.604C312.371 990.729 315.183 990.293 321.701 983.156C324.7 979.869 332.795 976.255 339.69 975.125C351.073 973.257 351.93 973.59 349.026 978.742C347.265 981.866 341.993 987.844 337.312 992.029C326.835 1001.39 326.392 1006.06 336.188 1003.81C340.255 1002.88 349.493 1001.14 356.72 999.941L369.86 997.768L359.184 1008.51C346.664 1021.11 346.155 1023.89 355.363 1029.39C361.519 1033.06 362.019 1032.87 360.238 1027.5C358.849 1023.32 362.209 1017.23 371.447 1007.2C378.704 999.322 384.643 992.18 384.643 991.335C384.643 989.847 363.576 993.643 350.192 997.542C345.166 999.005 346.543 996.085 356.161 984.867L368.658 970.29L354.476 970.61C346.677 970.789 335.731 971.976 330.153 973.251ZM964.151 980.494L957.893 987.558L965.284 981.577C972.229 975.957 974.17 973.43 971.542 973.43C970.918 973.43 967.594 976.607 964.151 980.494ZM590.402 988.446C586.637 994.27 577.853 1024.13 579.453 1025.66C581.772 1027.87 595.668 992.927 594.17 988.638C593.135 985.668 592.229 985.621 590.402 988.446ZM828.131 990.716C828.131 996.952 841.62 1027.52 843.555 1025.67C845.7 1023.62 834.669 989.479 831.2 987.429C829.511 986.434 828.131 987.913 828.131 990.716ZM949.26 991.483C945.176 996.462 945.291 996.572 950.501 992.669C953.662 990.299 956.25 987.825 956.25 987.175C956.25 984.591 953.553 986.252 949.26 991.483ZM1011.68 994.622C1007.59 999.602 1007.71 999.711 1012.92 995.809C1016.08 993.438 1018.67 990.964 1018.67 990.315C1018.67 987.731 1015.97 989.392 1011.68 994.622ZM648.259 1007.65C646.009 1013.52 644.297 1024.12 644.458 1031.2L644.754 1044.07L649.396 1028.37C651.948 1019.74 653.657 1009.14 653.193 1004.83C652.411 997.514 652.073 997.705 648.259 1007.65ZM769.519 1006.4C769.512 1011.58 771.454 1021.47 773.835 1028.37L778.165 1040.93L778.362 1028.37C778.471 1021.47 776.529 1011.58 774.046 1006.4L769.532 996.977L769.519 1006.4ZM1020.5 1011.81C1017.68 1015.64 1015.53 1022.35 1015.71 1026.72L1016.04 1034.65L1018.25 1027.1C1020.87 1018.14 1029 1012.54 1035.77 1015.03C1048.76 1019.79 1054.65 1053.64 1042.06 1051.19C1036.41 1050.09 1035.6 1042.58 1039.8 1030.34C1041.54 1025.27 1041.23 1023.55 1038.82 1024.97C1036.87 1026.12 1033.54 1032.61 1031.41 1039.39C1028.36 1049.11 1028.43 1052.74 1031.72 1056.53C1037.31 1062.97 1040.17 1062.6 1048.1 1054.47C1052.84 1049.61 1054.8 1043.35 1054.8 1033.08C1054.8 1008.72 1032.77 995.055 1020.5 1011.81ZM914.993 1012.85C908.869 1017.54 908.909 1017.59 916.008 1014.31C920.075 1012.42 923.399 1010.23 923.399 1009.43C923.399 1007.02 921.694 1007.72 914.993 1012.85ZM392.045 1021.31C390.251 1023.47 387.787 1030.53 386.565 1037.01C385.251 1043.97 382.475 1048.78 379.762 1048.78C372.902 1048.78 370.754 1043.42 374.752 1036.29C378.766 1029.12 375.402 1028.02 367.38 1033.87C362.475 1037.45 362.679 1038.59 369.693 1046.85C375.869 1054.12 379.062 1055.5 385.911 1053.86C392.764 1052.22 394.847 1049.37 396.522 1039.37C399.209 1023.3 406.538 1016.83 412.793 1025C415.957 1029.14 416.295 1032.5 413.966 1036.66C410.244 1043.3 411.89 1043.91 421.009 1039.24C427.652 1035.85 427.514 1035.46 414.797 1021.98C409.485 1016.35 396.479 1015.97 392.045 1021.31ZM887.263 1026.8C880.939 1030.11 876.948 1032.88 878.393 1032.95C881.872 1033.13 900.404 1023.92 900.404 1022.01C900.404 1019.96 900.21 1020.03 887.263 1026.8ZM860.982 1037.79C856.465 1040.26 854.248 1042.28 856.055 1042.28C857.862 1042.28 863.036 1040.26 867.553 1037.79C872.07 1035.32 874.287 1033.31 872.48 1033.31C870.673 1033.31 865.499 1035.32 860.982 1037.79ZM992.386 1040.38C992.386 1048.71 998.658 1052.84 1005.33 1048.9C1011.74 1045.11 1007.95 1034.77 999.745 1033.65C993.832 1032.84 992.386 1034.17 992.386 1040.38ZM829.774 1048.78C825.441 1050.56 824.883 1051.54 828.131 1051.65C830.842 1051.75 835.277 1050.45 837.987 1048.78C843.992 1045.07 838.805 1045.07 829.774 1048.78ZM464.044 1067.16C461.57 1068.69 460.145 1073.81 460.759 1078.95C461.676 1086.63 463.308 1088.03 471.34 1088.03C483.052 1088.03 489.77 1079.6 484.487 1071.54C480.374 1065.28 470.489 1063.15 464.044 1067.16ZM943.767 1068.25C934.372 1077.23 943.018 1090.93 956.891 1089.05C962.482 1088.3 964.745 1085.65 965.547 1078.95C967.081 1066.11 953.162 1059.27 943.767 1068.25ZM519.332 1097.44C519.332 1103.72 520.975 1105.29 527.545 1105.29C534.115 1105.29 535.758 1103.72 535.758 1097.44C535.758 1091.17 534.115 1089.6 527.545 1089.6C520.975 1089.6 519.332 1091.17 519.332 1097.44ZM888.452 1094.3C885.847 1100.78 889.379 1108.43 894.97 1108.43C897.516 1108.43 901.438 1106.31 903.689 1103.72C906.951 1099.97 906.951 1098.06 903.689 1094.3C901.438 1091.71 897.516 1089.6 894.97 1089.6C892.424 1089.6 889.491 1091.71 888.452 1094.3ZM580.34 1107.09C573.254 1113.86 573.871 1119.76 582.258 1125.37C595.353 1134.14 610.04 1119.23 599.387 1107.98C592.642 1100.86 587.13 1100.6 580.34 1107.09ZM827.31 1105.54C819.475 1109.91 819.975 1123.1 828.131 1127.27C841.939 1134.33 855.049 1116.58 843.9 1105.92C839.153 1101.38 834.958 1101.29 827.31 1105.54ZM644.741 1125.04C641.906 1128.3 642.067 1130.76 645.388 1135.1C651.331 1142.87 661.409 1139.12 660 1129.67C658.772 1121.44 650.138 1118.82 644.741 1125.04ZM764.621 1123.09C760.458 1127.06 762.449 1136.02 767.942 1138.04C770.971 1139.15 775.461 1138.14 777.915 1135.79C780.373 1133.45 781.43 1129.15 780.268 1126.26C778.159 1121.01 768.78 1119.11 764.621 1123.09ZM712.322 1249.67C695.085 1262.63 698.051 1280.21 721.34 1303.09C740.327 1321.74 742.821 1331.53 731.369 1342.48C724.562 1348.98 720.755 1350.34 713.81 1348.72C701.13 1345.76 692.585 1336.53 692.164 1325.33C691.603 1310.39 688.163 1313.83 684.041 1333.44C679.231 1356.33 679.323 1358.01 685.138 1353.39C688.948 1350.37 693.311 1350.37 705.67 1353.39C727.049 1358.61 744.112 1352.14 751.106 1336.14C757.876 1320.65 754.552 1311.77 734.082 1290.64C724.378 1280.62 716.438 1269.51 716.438 1265.96C716.438 1258.73 727.864 1249.72 737.029 1249.72C745.965 1249.72 759.102 1263.9 759.437 1273.91C759.663 1280.63 760.797 1279.02 764.302 1266.98C770.514 1245.65 770.448 1241.52 763.974 1246.65C760.097 1249.73 757.062 1249.82 750.679 1247.04C738.143 1241.58 721.569 1242.71 712.322 1249.67Z" fill="white" fill-opacity="0.2"/>
</svg>
