<svg width="142" height="143" viewBox="0 0 142 143" fill="none" xmlns="http://www.w3.org/2000/svg">
<circle cx="71.2354" cy="71.7047" r="70.7628" fill="white" fill-opacity="0.9"/>
<path d="M68.5982 94.1768L68.8056 62.3198L76.9523 62.3728L76.7449 94.2299L68.5982 94.1768ZM68.8345 57.8817L68.8871 49.7958L77.0338 49.8489L76.9811 57.9347L68.8345 57.8817Z" fill="#2356F6"/>
<path fill-rule="evenodd" clip-rule="evenodd" d="M67.4221 34.6191C59.2739 36.1155 52.7298 39.4812 46.9638 45.1411C36.5828 55.3314 33.1005 69.9172 37.814 83.4667L38.8899 86.5593L36.168 97.0075L33.4458 107.456L34.0673 108.276C34.4095 108.727 34.9918 109.141 35.3616 109.195C35.7313 109.249 40.258 108.124 45.4208 106.696C53.388 104.491 54.9343 104.15 55.6484 104.444C63.0957 107.512 65.2613 108.125 70.4433 108.634C78.3926 109.414 87.0164 107.407 93.8418 103.188C114.145 90.6395 117.917 63.5448 101.782 46.148C96.8216 40.7996 90.4891 37.1556 82.7228 35.1806C78.7402 34.1678 71.3552 33.8969 67.4221 34.6191ZM82.1087 39.4411C91.6884 41.9696 99.5499 48.21 103.852 56.7012C113.382 75.508 102.946 98.0393 82.1903 103.469C79.3701 104.207 78.3977 104.304 73.853 104.304C69.325 104.304 68.3308 104.205 65.5594 103.48C63.8276 103.027 60.843 101.925 58.9272 101.032L55.4433 99.4079L47.3195 101.656C42.8513 102.892 39.149 103.858 39.0921 103.803C39.0355 103.747 40.0207 99.7305 41.2818 94.8769L43.5744 86.0527L42.7397 84.0024C41.0928 79.9582 40.5342 77.4025 40.3436 73.0426C40.0609 66.5778 41.1269 61.6507 43.9812 56.2278C48.8529 46.9727 58.162 40.3968 68.7083 38.7606C69.2388 38.6785 71.9157 38.6513 74.6569 38.7003C78.4582 38.7684 80.2263 38.9443 82.1087 39.4411Z" fill="#2356F6"/>
</svg>
