<svg width="45" height="46" viewBox="0 0 45 46" fill="none" xmlns="http://www.w3.org/2000/svg">
<path d="M20.8972 0.714515C18.5356 0.949677 17.1407 1.23187 15.269 1.85289C12.852 2.6548 10.4136 3.97599 8.37555 5.58792C7.53307 6.25432 5.58964 8.19775 4.92324 9.04023C2.40478 12.2245 0.802615 15.9729 0.20524 20.0785C-0.00453 21.5201 -0.00453 24.4832 0.20524 25.9248C0.802615 30.0304 2.40478 33.7788 4.92324 36.9631C5.58964 37.8056 7.53307 39.749 8.37555 40.4154C11.5598 42.9339 15.3082 44.536 19.4138 45.1334C20.8554 45.3432 23.8185 45.3432 25.2601 45.1334C29.3658 44.536 33.1141 42.9339 36.2984 40.4154C37.1409 39.749 39.0843 37.8056 39.7507 36.9631C42.2692 33.7788 43.8713 30.0304 44.4687 25.9248C44.6785 24.4832 44.6785 21.5201 44.4687 20.0785C43.8713 15.9729 42.2692 12.2245 39.7507 9.04023C39.0843 8.19775 37.1409 6.25432 36.2984 5.58792C33.1718 3.11509 29.4524 1.50203 25.5279 0.917042C24.444 0.755439 21.6937 0.635196 20.8972 0.714515ZM31.8482 13.4904C32.2334 13.8757 32.206 13.9372 28.8757 20.1455C27.1449 23.3722 25.643 26.0982 25.5381 26.2034C25.4332 26.3086 22.7071 27.8106 19.4801 29.5411C15.1397 31.8686 13.5374 32.6874 13.323 32.6874C12.9278 32.6874 12.6512 32.4162 12.6512 32.0288C12.6512 31.7972 13.3921 30.3444 15.7975 25.8585C17.5281 22.6315 19.03 19.905 19.1352 19.7996C19.2404 19.6943 21.9574 18.1945 25.1729 16.4668C31.3896 13.1266 31.4551 13.0973 31.8482 13.4904ZM25.2301 18.106C22.9099 19.3486 20.9769 20.4002 20.9345 20.4426C20.8897 20.4874 21.6956 21.3577 22.8528 22.514C24.8387 24.4985 24.849 24.5071 24.9777 24.3002C25.2939 23.7921 29.5183 15.8463 29.4721 15.8465C29.4592 15.8465 27.5503 16.8633 25.2301 18.106ZM19.6963 21.7031C19.5606 21.9211 15.6926 29.1413 15.3639 29.7903L15.1738 30.1654L15.4614 30.0197C16.5005 29.4929 23.6227 25.6617 23.7101 25.5825C23.7931 25.5073 23.357 25.0241 21.8218 23.49C19.8353 21.5048 19.825 21.4962 19.6963 21.7031Z" fill="#3768FF"/>
<path d="M20.8972 0.714515C18.5356 0.949677 17.1407 1.23187 15.269 1.85289C12.852 2.6548 10.4136 3.97599 8.37555 5.58792C7.53307 6.25432 5.58964 8.19775 4.92324 9.04023C2.40478 12.2245 0.802615 15.9729 0.20524 20.0785C-0.00453 21.5201 -0.00453 24.4832 0.20524 25.9248C0.802615 30.0304 2.40478 33.7788 4.92324 36.9631C5.58964 37.8056 7.53307 39.749 8.37555 40.4154C11.5598 42.9339 15.3082 44.536 19.4138 45.1334C20.8554 45.3432 23.8185 45.3432 25.2601 45.1334C29.3658 44.536 33.1141 42.9339 36.2984 40.4154C37.1409 39.749 39.0843 37.8056 39.7507 36.9631C42.2692 33.7788 43.8713 30.0304 44.4687 25.9248C44.6785 24.4832 44.6785 21.5201 44.4687 20.0785C43.8713 15.9729 42.2692 12.2245 39.7507 9.04023C39.0843 8.19775 37.1409 6.25432 36.2984 5.58792C33.1718 3.11509 29.4524 1.50203 25.5279 0.917042C24.444 0.755439 21.6937 0.635196 20.8972 0.714515ZM31.8482 13.4904C32.2334 13.8757 32.206 13.9372 28.8757 20.1455C27.1449 23.3722 25.643 26.0982 25.5381 26.2034C25.4332 26.3086 22.7071 27.8106 19.4801 29.5411C15.1397 31.8686 13.5374 32.6874 13.323 32.6874C12.9278 32.6874 12.6512 32.4162 12.6512 32.0288C12.6512 31.7972 13.3921 30.3444 15.7975 25.8585C17.5281 22.6315 19.03 19.905 19.1352 19.7996C19.2404 19.6943 21.9574 18.1945 25.1729 16.4668C31.3896 13.1266 31.4551 13.0973 31.8482 13.4904ZM25.2301 18.106C22.9099 19.3486 20.9769 20.4002 20.9345 20.4426C20.8897 20.4874 21.6956 21.3577 22.8528 22.514C24.8387 24.4985 24.849 24.5071 24.9777 24.3002C25.2939 23.7921 29.5183 15.8463 29.4721 15.8465C29.4592 15.8465 27.5503 16.8633 25.2301 18.106ZM19.6963 21.7031C19.5606 21.9211 15.6926 29.1413 15.3639 29.7903L15.1738 30.1654L15.4614 30.0197C16.5005 29.4929 23.6227 25.6617 23.7101 25.5825C23.7931 25.5073 23.357 25.0241 21.8218 23.49C19.8353 21.5048 19.825 21.4962 19.6963 21.7031Z" stroke="black"/>
</svg>
