<svg width="1219" height="551" viewBox="0 0 1219 551" fill="none" xmlns="http://www.w3.org/2000/svg">
<path fill-rule="evenodd" clip-rule="evenodd" d="M725.462 41.1813C722.974 43.0538 720.477 46.4266 712.681 58.4446C708.732 64.5314 704.803 70.214 703.948 71.0739C702.786 72.242 701.107 72.5363 697.285 72.2404C694.474 72.0227 687.606 71.985 682.022 72.1558L671.868 72.4678L662.317 57.7102C657.063 49.5936 651.92 42.5601 650.888 42.079C648.74 41.0796 643.872 42.2448 634.356 46.0345C624.89 49.8042 623.979 50.6329 624.278 55.197C624.414 57.2605 626.043 65.4631 627.899 73.4251C629.754 81.3868 631.191 88.3018 631.091 88.7911C630.992 89.2804 627.738 92.6829 623.859 96.3526C619.981 100.022 615.103 104.98 613.021 107.37L609.235 111.715L592.398 107.809C583.138 105.662 574.555 103.953 573.326 104.012C572.096 104.071 570.45 104.99 569.669 106.054C567.598 108.875 563.757 117.482 561.831 123.616C560.323 128.418 560.309 129.154 561.684 131.029C563.048 132.889 569.341 137.055 587.443 148.08L593.12 151.538L592.55 157.309C592.236 160.483 592.128 167.391 592.31 172.66L592.64 182.241L577.043 192.543C567.677 198.729 561.313 203.499 561.113 204.484C560.737 206.336 564.2 216.699 567.56 223.771C569.471 227.793 570.217 228.558 572.708 229.045C575.831 229.657 584.013 228.364 597.582 225.115C610.82 221.945 609.367 221.704 615.148 228.025C617.966 231.106 623.068 235.929 626.485 238.744L632.699 243.862L628.726 260.629C624.387 278.95 624.278 281.573 627.771 283.724C630.974 285.696 648.905 292.912 650.109 292.713C651.809 292.431 657.655 284.815 665.688 272.416C673.999 259.587 673.507 259.92 682.821 260.815C685.955 261.116 692.179 261.131 696.653 260.848L704.787 260.333L714.066 274.572C719.168 282.402 724.209 289.507 725.265 290.361C726.958 291.727 727.683 291.775 731.346 290.764C737.02 289.198 748.701 284.326 751.22 282.473C753.242 280.987 753.268 280.867 752.591 276.295C752.211 273.73 750.405 265.325 748.578 257.616L745.254 243.601L751.554 237.997C755.02 234.915 759.928 229.879 762.462 226.805L767.07 221.215L783.833 224.984C793.053 227.057 801.58 228.679 802.784 228.588C806.554 228.306 808.805 225.325 813.232 214.751C817.072 205.581 817.372 204.474 816.429 202.926C815.268 201.018 806.779 195.234 794.18 187.764C789.574 185.034 785.465 182.166 785.049 181.39C784.632 180.616 784.41 178.059 784.555 175.71C784.699 173.36 784.67 166.679 784.491 160.862L784.164 150.286L798.205 141.402C814.957 130.803 816.234 129.679 815.618 126.06C814.734 120.865 807.414 104.84 805.522 103.96C803.337 102.942 796.385 103.995 779.53 107.895L767.29 110.728L761.422 104.477C758.193 101.04 753.155 96.2529 750.225 93.8406L744.898 89.4544L748.493 71.7618C752.452 52.2782 752.428 50.9445 748.078 48.5481C745.649 47.2101 729.235 40.3848 727.743 40.0928C727.379 40.0214 726.352 40.5116 725.462 41.1813ZM712.965 114.843C720.725 118.476 730.135 126.059 734.944 132.553C740.576 140.161 744.811 150.627 745.959 159.778C746.755 166.124 746.596 168.484 744.753 177.639C742.889 186.901 742.192 188.917 739.052 194.152C729.249 210.494 714.361 220.318 695.423 222.942C688.823 223.858 686.942 223.738 676.904 221.767C667.473 219.916 664.923 219.103 660.538 216.55C647.648 209.046 637.528 196.424 632.879 182.052C627.621 165.801 631.099 146.675 641.89 132.499C648.541 123.762 662.685 114.207 673.253 111.312C684.429 108.25 702.272 109.837 712.965 114.843Z" fill="#3768FF"/>
<path fill-rule="evenodd" clip-rule="evenodd" d="M151.565 285.865C149.434 288.123 147.554 291.862 141.941 305.001C139.097 311.655 136.203 317.908 135.509 318.898C134.564 320.242 132.961 320.811 129.142 321.153C126.335 321.405 119.559 322.508 114.085 323.603L104.131 325.596L92.175 312.636C85.5992 305.509 79.3189 299.43 78.2182 299.127C75.9297 298.499 71.3319 300.455 62.6055 305.77C53.9254 311.056 53.1703 312.024 54.2517 316.473C54.7409 318.484 57.7594 326.298 60.9599 333.838C64.1596 341.377 66.7668 347.954 66.7531 348.453C66.7394 348.951 64.118 352.845 60.9271 357.106C57.7371 361.366 53.7835 367.062 52.1435 369.763L49.1601 374.674L31.8933 373.619C22.396 373.04 13.6422 372.779 12.4409 373.042C11.2388 373.304 9.77554 374.483 9.18908 375.662C7.63385 378.786 5.33077 387.906 4.48865 394.271C3.83003 399.255 3.94242 399.983 5.62064 401.602C7.28519 403.209 14.2059 406.271 33.9455 414.133L40.1366 416.598L40.5686 422.381C40.8064 425.561 41.89 432.387 42.9764 437.55L44.9522 446.939L31.3548 459.681C23.1893 467.332 17.7383 473.091 17.7107 474.094C17.6589 475.982 22.8576 485.621 27.3875 492.033C29.9639 495.681 30.8303 496.311 33.3691 496.378C36.5528 496.462 44.3945 493.83 57.2086 488.375C69.7094 483.053 68.2365 483.057 75.0229 488.328C78.3311 490.896 84.1897 494.804 88.0427 497.011L95.0487 501.023L94.0214 518.208C92.9003 536.986 93.2452 539.59 97.0578 541.13C100.555 542.542 119.471 546.678 120.622 546.281C122.25 545.721 126.7 537.245 132.481 523.691C138.463 509.667 138.035 510.077 147.37 509.414C150.51 509.19 156.647 508.171 161.008 507.15L168.936 505.293L180.534 517.786C186.911 524.657 193.103 530.823 194.291 531.489C196.195 532.555 196.918 532.482 200.354 530.877C205.677 528.392 216.351 521.651 218.514 519.407C220.251 517.606 220.256 517.484 218.801 513.09C217.985 510.625 214.757 502.641 211.629 495.347L205.938 482.085L211.183 475.516C214.067 471.903 218.037 466.124 220.006 462.674L223.584 456.4L240.755 457.333C250.199 457.845 258.883 458.029 260.054 457.74C263.721 456.835 265.426 453.524 267.969 442.367C270.174 432.692 270.278 431.551 269.082 430.182C267.609 428.494 258.246 424.203 244.542 418.932C239.532 417.005 234.988 414.86 234.444 414.165C233.9 413.471 233.241 410.988 232.979 408.648C232.716 406.308 231.537 399.728 230.358 394.025L228.215 383.655L240.523 372.569C255.208 359.342 256.273 358.022 255.042 354.557C253.276 349.584 243.301 335.004 241.285 334.451C238.957 333.811 232.286 336.002 216.346 342.644L204.769 347.467L197.909 342.281C194.135 339.428 188.345 335.547 185.041 333.656L179.035 330.217L179.531 312.182C180.077 292.322 179.823 291.012 175.124 289.372C172.498 288.456 155.145 284.453 153.625 284.413C153.254 284.403 152.326 285.057 151.565 285.865ZM151.935 360.54C160.21 362.832 170.79 368.744 176.649 374.347C183.51 380.91 189.487 390.523 192.195 399.351C194.072 405.474 194.322 407.827 194.082 417.156C193.84 426.594 193.501 428.696 191.308 434.377C184.46 452.111 171.48 464.265 153.267 469.994C146.919 471.992 145.044 472.186 134.812 471.91C125.198 471.651 122.544 471.273 117.783 469.485C103.786 464.228 91.6374 453.467 84.5798 440.074C76.598 424.93 76.7313 405.502 84.9252 389.738C89.9756 380.023 102.27 368.258 112.187 363.651C122.674 358.779 140.534 357.381 151.935 360.54Z" fill="#3768FF"/>
<path fill-rule="evenodd" clip-rule="evenodd" d="M770.411 259.484C768.348 262.091 766.692 266.258 761.934 280.809C759.524 288.179 757.022 295.124 756.373 296.245C755.491 297.767 753.831 298.52 749.783 299.234C746.807 299.759 739.67 301.554 733.924 303.222L723.475 306.258L709.475 293.497C701.775 286.478 694.489 280.554 693.285 280.33C690.78 279.867 686.051 282.376 677.228 288.849C668.451 295.288 667.736 296.391 669.312 301.047C670.024 303.152 673.988 311.227 678.12 318.993C682.251 326.758 685.658 333.549 685.691 334.083C685.723 334.618 683.289 339.017 680.282 343.86C677.275 348.703 673.588 355.15 672.091 358.185L669.366 363.704L650.815 364.149C640.612 364.394 631.233 364.912 629.974 365.302C628.714 365.692 627.262 367.085 626.746 368.397C625.379 371.877 623.779 381.833 623.481 388.712C623.247 394.097 623.436 394.864 625.382 396.442C627.313 398.008 634.998 400.65 656.834 407.255L663.683 409.326L664.69 415.466C665.245 418.843 667.047 426.04 668.696 431.458L671.694 441.311L658.367 456.165C650.363 465.084 645.082 471.733 645.148 472.808C645.27 474.83 651.736 484.657 657.182 491.098C660.28 494.761 661.265 495.355 663.984 495.196C667.395 494.996 675.526 491.47 688.704 484.475C701.56 477.651 699.986 477.789 707.736 482.803C711.514 485.247 718.143 488.89 722.469 490.898L730.335 494.548L730.86 513.005C731.435 533.174 732.049 535.925 736.269 537.223C740.139 538.414 760.744 541.113 761.937 540.585C763.623 539.838 767.578 530.375 772.476 515.365C777.544 499.835 777.125 500.311 787.038 498.753C790.373 498.228 796.835 496.582 801.398 495.093L809.695 492.387L823.268 504.682C830.732 511.445 837.931 517.47 839.264 518.074C841.399 519.04 842.164 518.896 845.685 516.869C851.139 513.728 861.908 505.554 864.007 502.959C865.694 500.877 865.688 500.746 863.718 496.183C862.613 493.623 858.409 485.385 854.378 477.874L847.045 464.22L852.029 456.724C854.77 452.6 858.467 446.064 860.244 442.197L863.476 435.168L881.913 434.602C892.053 434.29 901.351 433.696 902.574 433.281C906.408 431.98 907.917 428.287 909.581 416.133C911.023 405.594 911.027 404.365 909.62 403.011C907.886 401.341 897.476 397.607 882.333 393.221C876.798 391.618 871.739 389.74 871.093 389.046C870.446 388.354 869.507 385.76 869.006 383.284C868.505 380.808 866.623 373.883 864.825 367.896L861.555 357.01L873.661 344.043C888.104 328.573 889.117 327.065 887.475 323.474C885.119 318.32 873.083 303.648 870.876 303.24C868.327 302.768 861.406 305.717 844.999 314.265L833.084 320.473L825.262 315.554C820.96 312.849 814.406 309.229 810.698 307.508L803.955 304.38L802.781 285.063C801.489 263.79 801.095 262.413 795.918 261.088C793.026 260.349 774.104 257.65 772.476 257.745C772.078 257.769 771.148 258.552 770.411 259.484ZM777.859 339.249C786.918 340.946 798.782 346.301 805.572 351.755C813.524 358.144 820.818 367.873 824.546 377.06C827.13 383.433 827.619 385.924 828.244 395.915C828.877 406.023 828.713 408.3 826.905 414.57C821.263 434.144 808.539 448.313 789.617 456.093C783.022 458.805 781.038 459.183 770.077 459.819C759.779 460.417 756.907 460.254 751.65 458.777C736.197 454.433 722.199 444.039 713.392 430.369C703.433 414.912 701.741 394.139 709.008 376.548C713.488 365.707 725.514 352.016 735.677 346.19C746.424 340.03 765.377 336.911 777.859 339.249Z" fill="#3768FF"/>
<path fill-rule="evenodd" clip-rule="evenodd" d="M450.713 144.655C436.271 143.111 436.364 143.038 431.319 159.939C429.322 166.632 426.825 174.994 425.771 178.522L423.855 184.936L409.783 186.602C394.522 188.408 393.996 188.311 391.418 183.214C389.418 179.259 375.027 157.987 372.661 155.488L370.625 153.338L366.308 154.437C360.725 155.859 346.56 162.425 345.492 164.085C344.395 165.79 345.269 171.217 349.553 189.304C351.521 197.61 353.025 204.922 352.897 205.553C352.768 206.185 349.477 209.022 345.584 211.857C341.69 214.692 336.799 218.394 334.714 220.084L330.923 223.157L322.067 218.55C306.934 210.678 296.243 205.596 293.794 205.111C291.959 204.747 290.773 205.334 288.403 207.778C283.765 212.56 276.006 223.323 275.539 225.624C275.094 227.811 279.279 232.953 294.691 249.15C299.186 253.876 302.3 257.891 302.357 259.039C302.506 262.029 292.912 284.035 291.256 284.503C290.487 284.721 281.35 285.216 270.952 285.603C247.264 286.488 248.579 285.722 246.567 299.811C245.763 305.443 245.373 311.087 245.7 312.353C246.586 315.782 249.472 317.437 260.002 320.555C265.241 322.106 273.476 324.595 278.302 326.085L287.075 328.795L288.067 337.762C288.613 342.693 289.539 348.892 290.126 351.536L291.193 356.343L274.108 367.163C264.71 373.112 256.496 378.61 255.853 379.378C255.008 380.384 254.923 381.616 255.544 383.801C256.987 388.873 261.08 398.082 263.677 402.094C266.799 406.919 266.656 406.92 288.867 401.921C298.396 399.777 306.649 397.984 307.208 397.938C307.769 397.89 311.742 402.19 316.041 407.494C320.338 412.797 324.397 417.737 325.06 418.471C326.163 419.692 325.748 420.749 320.174 430.894C316.823 436.993 312.482 445.335 310.528 449.434C307.133 456.55 307.026 456.972 308.149 458.815C309.761 461.464 323.471 472.038 327.189 473.502C330.897 474.962 331.053 474.857 348.097 459.504C354.793 453.473 360.977 448.282 361.84 447.969C364.036 447.173 386.025 455.565 387.531 457.774C388.152 458.685 388.98 466.956 389.413 476.564C390.245 495.034 390.741 498.062 393.274 500.106C395.107 501.587 415.521 504.067 418.521 503.173C420.776 502.502 423.03 497.03 428.156 479.785C430.545 471.746 433.1 464.587 433.833 463.875C434.604 463.127 440.772 461.857 448.473 460.861L461.781 459.14L472.73 475.621C478.752 484.687 484.475 492.518 485.448 493.026C488.823 494.787 508.921 487.36 511.258 483.488C512.698 481.099 512.258 478.382 506.704 455.38L503.431 441.825L510.3 436.785C514.078 434.012 519.123 430.096 521.511 428.084L525.854 424.424L532.425 427.7C536.039 429.502 544.128 433.609 550.402 436.827C556.675 440.045 562.414 442.796 563.155 442.941C563.896 443.086 565.819 442.179 567.428 440.926C571.465 437.782 580.815 425.279 581.444 422.183C582.049 419.203 581.046 417.906 565.282 401.287C559.48 395.169 554.632 389.592 554.51 388.894C554.388 388.195 555.878 383.905 557.82 379.359C559.762 374.813 561.917 369.549 562.61 367.662C563.302 365.775 564.396 363.953 565.041 363.614C565.686 363.275 573.926 362.645 583.352 362.215C604.574 361.247 607.154 360.824 608.469 358.101C609.024 356.954 610.034 351.196 610.715 345.306C612.415 330.608 614.129 332.146 586.946 323.985C578.296 321.389 570.88 318.954 570.465 318.573C570.049 318.194 569.684 316.599 569.654 315.031C569.624 313.462 568.791 307.481 567.803 301.739L566.006 291.299L583.996 279.909C593.89 273.644 602.085 267.98 602.207 267.323C602.631 265.044 597.131 251.157 593.417 245.129C592.487 243.62 590.877 242.219 589.839 242.016C587.712 241.599 575.507 243.892 560.309 247.563C554.699 248.919 549.742 249.955 549.295 249.868C548.847 249.78 545.872 246.32 542.684 242.178C539.495 238.037 535.818 233.496 534.512 232.087C533.206 230.677 532.064 228.877 531.974 228.085C531.885 227.294 535.741 219.185 540.543 210.064C545.344 200.944 549.45 192.61 549.666 191.545C550.148 189.173 548.187 187.064 539.032 180.11C529.013 172.499 528.132 172.2 524.063 175.038C522.219 176.324 514.855 182.817 507.697 189.467C497.651 198.802 494.392 201.368 493.401 200.723C491.261 199.331 473.331 192.029 470.822 191.528C468.97 191.158 468.461 190.549 468.406 188.633C468.121 178.786 466.977 157.117 466.56 153.622C466.279 151.275 465.337 148.624 464.465 147.729C462.762 145.98 462.451 145.911 450.713 144.655ZM466.988 236.886C474.721 240.078 485.839 247.019 492.626 252.892C509.842 267.791 520.737 288.104 524.185 311.738C525.58 321.288 525.129 329.897 522.578 342.448C519.136 359.39 514.883 368.803 505.101 381.133C485.684 405.606 457.99 418.868 427.007 418.529C415.388 418.403 397.147 414.07 386.23 408.844C350.178 391.586 328.932 354.112 332.584 314.221C334.733 290.752 348.283 265.838 366.96 251.017C383.951 237.535 402.608 230.298 423.313 229.158C430.549 228.76 433.81 229.091 446.192 231.478C456.09 233.386 462.632 235.088 466.988 236.886Z" fill="#3768FF"/>
<path fill-rule="evenodd" clip-rule="evenodd" d="M1022.87 23.0758C1008.35 22.4859 1008.44 22.4069 1004.56 39.6026C1003.03 46.4116 1001.11 54.9196 1000.3 58.509L998.824 65.0345L984.897 67.6232C969.794 70.43 969.263 70.368 966.343 65.4522C964.077 61.6369 948.265 41.3612 945.733 39.0233L943.555 37.0118L939.323 38.3932C933.85 40.1795 920.165 47.6629 919.213 49.3897C918.235 51.1635 919.478 56.5204 924.988 74.2846C927.519 82.4421 929.519 89.6389 929.435 90.277C929.35 90.916 926.26 93.9627 922.569 97.0479C918.877 100.133 914.25 104.149 912.285 105.972L908.713 109.288L899.563 105.275C883.926 98.4158 872.911 94.0492 870.434 93.7267C868.579 93.4847 867.436 94.1486 865.238 96.7431C860.938 101.819 853.932 113.069 853.622 115.395C853.328 117.607 857.855 122.462 874.338 137.608C879.147 142.027 882.527 145.829 882.663 146.969C883.016 149.943 874.948 172.532 873.327 173.108C872.575 173.376 863.492 174.471 853.144 175.542C829.57 177.984 830.83 177.133 829.785 191.323C829.368 196.995 829.363 202.652 829.776 203.894C830.895 207.257 833.887 208.718 844.607 211.136C849.94 212.339 858.326 214.28 863.243 215.449L872.182 217.575L873.784 226.456C874.666 231.341 876.013 237.464 876.78 240.064L878.173 244.79L861.866 256.71C852.896 263.265 845.075 269.291 844.486 270.099C843.713 271.159 843.711 272.394 844.48 274.533C846.267 279.498 850.98 288.417 853.845 292.249C857.29 296.858 857.147 296.869 878.967 290.419C888.327 287.652 896.44 285.32 896.994 285.236C897.55 285.152 901.808 289.181 906.46 294.189C911.11 299.198 915.497 303.859 916.209 304.547C917.393 305.693 917.05 306.776 912.183 317.265C909.256 323.57 905.495 332.18 903.825 336.398C900.924 343.721 900.846 344.15 902.092 345.915C903.881 348.451 918.283 358.099 922.093 359.315C925.893 360.528 926.041 360.412 941.998 343.971C948.266 337.514 954.082 331.927 954.922 331.558C957.058 330.619 979.571 337.545 981.224 339.649C981.906 340.518 983.298 348.716 984.387 358.274C986.478 376.647 987.18 379.636 989.847 381.508C991.777 382.865 1012.31 383.995 1015.25 382.906C1017.45 382.088 1019.33 376.48 1023.26 358.936C1025.1 350.758 1027.16 343.446 1027.84 342.688C1028.56 341.891 1034.62 340.218 1042.24 338.717L1055.4 336.124L1067.45 351.847C1074.08 360.496 1080.32 367.933 1081.33 368.375C1084.82 369.91 1104.36 361.177 1106.43 357.159C1107.7 354.681 1107.08 351.999 1099.97 329.414L1095.77 316.106L1102.28 310.625C1105.86 307.609 1110.63 303.37 1112.87 301.205L1116.96 297.267L1123.74 300.103C1127.47 301.663 1135.82 305.228 1142.3 308.026C1148.78 310.824 1154.69 313.19 1155.44 313.286C1156.19 313.382 1158.05 312.351 1159.57 310.995C1163.38 307.593 1171.85 294.502 1172.27 291.371C1172.67 288.358 1171.58 287.131 1154.72 271.586C1148.51 265.864 1143.29 260.619 1143.12 259.931C1142.95 259.242 1144.14 254.863 1145.77 250.199C1147.4 245.535 1149.19 240.141 1149.75 238.213C1150.31 236.285 1151.28 234.395 1151.9 234.015C1152.52 233.633 1160.7 232.462 1170.08 231.413C1191.18 229.05 1193.73 228.458 1194.85 225.654C1195.33 224.474 1195.94 218.662 1196.22 212.74C1196.91 197.964 1198.73 199.386 1171.05 193.033C1162.24 191.012 1154.68 189.07 1154.23 188.718C1153.79 188.367 1153.32 186.8 1153.18 185.237C1153.05 183.673 1151.81 177.761 1150.43 172.097L1147.92 161.799L1165.09 149.249C1174.54 142.347 1182.33 136.157 1182.4 135.493C1182.67 133.191 1176.23 119.698 1172.12 113.928C1171.09 112.484 1169.38 111.192 1168.33 111.057C1166.18 110.782 1154.16 113.873 1139.25 118.537C1133.75 120.258 1128.87 121.619 1128.42 121.561C1127.97 121.503 1124.76 118.247 1121.3 114.324C1117.83 110.402 1113.85 106.113 1112.45 104.793C1111.05 103.473 1109.79 101.751 1109.65 100.968C1109.51 100.184 1112.8 91.8392 1116.97 82.4228C1121.13 73.0072 1124.66 64.4215 1124.8 63.3449C1125.12 60.947 1123.02 58.9713 1113.41 52.6356C1102.9 45.7014 1102 45.4612 1098.13 48.5613C1096.38 49.9653 1089.47 56.9291 1082.79 64.0352C1073.4 74.0101 1070.32 76.7852 1069.29 76.2071C1067.06 74.9593 1048.67 68.8542 1046.14 68.5196C1044.26 68.2719 1043.71 67.6975 1043.53 65.7902C1042.57 55.9835 1039.95 34.439 1039.29 30.9793C1038.85 28.6559 1037.73 26.0726 1036.8 25.2376C1034.98 23.6045 1034.67 23.5563 1022.87 23.0758ZM1045.41 114.027C1053.34 116.703 1064.91 122.897 1072.08 128.309C1090.28 142.041 1102.54 161.591 1107.59 184.945C1109.64 194.382 1109.77 203.001 1108.09 215.692C1105.81 232.822 1102.21 242.494 1093.29 255.44C1075.59 281.137 1048.87 296.192 1017.93 297.894C1006.33 298.533 987.832 295.41 976.583 290.916C939.433 276.07 915.675 240.079 916.592 200.038C917.133 176.479 928.95 150.73 946.573 134.713C962.604 120.142 980.725 111.693 1001.31 109.193C1008.5 108.319 1011.77 108.434 1024.29 110.001C1034.3 111.253 1040.94 112.521 1045.41 114.027Z" fill="#3768FF"/>
<path d="M396.525 331.881V325.417C395.893 325.714 395.231 325.941 394.539 326.099C393.847 326.237 393.106 326.307 392.315 326.307C390.615 326.307 389.33 325.872 388.46 325.002C387.61 324.132 387.186 322.798 387.186 320.999V316.433H389.202V320.732C389.202 322.116 389.478 323.124 390.032 323.757C390.605 324.389 391.514 324.706 392.76 324.706C393.452 324.706 394.143 324.627 394.835 324.468C395.527 324.31 396.09 324.103 396.525 323.846V316.433H398.541V331.881H396.525ZM402.444 331.881V316.463H404.46V329.153L413.859 316.433H415.668V331.881H413.652V319.398L404.401 331.881H402.444ZM423.429 331.881V318.242H417.914V316.433H430.96V318.242H425.445V331.881H423.429ZM431.868 327.433C431.868 326.465 432.145 325.635 432.698 324.943C433.252 324.231 434.013 323.688 434.981 323.312C435.97 322.917 437.106 322.719 438.391 322.719C439.142 322.719 439.923 322.778 440.733 322.897C441.544 323.016 442.265 323.193 442.898 323.431V322.126C442.898 320.821 442.512 319.784 441.741 319.013C440.971 318.242 439.903 317.856 438.539 317.856C437.709 317.856 436.889 318.015 436.078 318.331C435.288 318.627 434.457 319.072 433.588 319.665L432.817 318.242C433.825 317.55 434.813 317.036 435.782 316.7C436.75 316.344 437.739 316.166 438.747 316.166C440.644 316.166 442.147 316.71 443.254 317.797C444.361 318.884 444.914 320.387 444.914 322.304V329.45C444.914 329.726 444.973 329.934 445.092 330.072C445.21 330.191 445.398 330.26 445.655 330.28V331.881C445.438 331.901 445.25 331.92 445.092 331.94C444.934 331.96 444.815 331.96 444.736 331.94C444.242 331.92 443.866 331.762 443.609 331.466C443.352 331.169 443.214 330.853 443.194 330.517L443.165 329.39C442.473 330.28 441.573 330.972 440.467 331.466C439.36 331.94 438.233 332.177 437.086 332.177C436.098 332.177 435.199 331.97 434.388 331.555C433.598 331.12 432.975 330.547 432.52 329.835C432.085 329.104 431.868 328.303 431.868 327.433ZM442.216 328.619C442.433 328.343 442.601 328.076 442.72 327.819C442.839 327.562 442.898 327.335 442.898 327.137V324.883C442.226 324.627 441.524 324.429 440.793 324.29C440.081 324.152 439.36 324.083 438.628 324.083C437.185 324.083 436.019 324.37 435.13 324.943C434.24 325.516 433.795 326.297 433.795 327.285C433.795 327.858 433.944 328.402 434.24 328.916C434.537 329.41 434.971 329.825 435.545 330.161C436.118 330.477 436.79 330.636 437.561 330.636C438.529 330.636 439.429 330.448 440.259 330.072C441.109 329.697 441.761 329.212 442.216 328.619ZM452.389 331.881V318.242H446.874V316.433H459.92V318.242H454.405V331.881H452.389ZM462.131 331.881V316.433H464.147V321.889H468.15C469.909 321.889 471.233 322.343 472.123 323.253C473.032 324.142 473.487 325.318 473.487 326.781C473.487 327.73 473.289 328.59 472.894 329.361C472.498 330.131 471.915 330.744 471.144 331.199C470.393 331.654 469.444 331.881 468.298 331.881H462.131ZM464.147 330.28H468.031C468.842 330.28 469.494 330.122 469.988 329.805C470.482 329.469 470.848 329.044 471.085 328.53C471.322 327.997 471.441 327.423 471.441 326.811C471.441 326.218 471.332 325.674 471.115 325.18C470.917 324.666 470.561 324.261 470.047 323.964C469.553 323.648 468.861 323.49 467.972 323.49H464.147V330.28Z" fill="white" fill-opacity="0.9"/>
<path d="M657.616 171.251C656.871 171.251 656.185 171.114 655.557 170.839C654.943 170.552 654.4 170.159 653.929 169.663C653.472 169.166 653.112 168.597 652.851 167.956C652.602 167.316 652.478 166.636 652.478 165.917C652.478 164.949 652.694 164.067 653.125 163.269C653.557 162.472 654.158 161.838 654.93 161.367C655.701 160.896 656.59 160.661 657.597 160.661C658.551 160.661 659.394 160.883 660.127 161.328C660.859 161.759 661.401 162.348 661.754 163.093L660.46 163.505C660.172 162.982 659.767 162.576 659.244 162.289C658.734 161.988 658.165 161.838 657.538 161.838C656.858 161.838 656.237 162.014 655.675 162.367C655.113 162.72 654.662 163.204 654.322 163.819C653.995 164.433 653.831 165.132 653.831 165.917C653.831 166.688 654.001 167.388 654.341 168.015C654.681 168.643 655.132 169.146 655.694 169.525C656.257 169.891 656.878 170.074 657.558 170.074C658.002 170.074 658.427 169.996 658.832 169.839C659.251 169.682 659.61 169.473 659.911 169.212C660.225 168.937 660.434 168.643 660.538 168.329L661.852 168.721C661.669 169.205 661.362 169.643 660.931 170.035C660.512 170.414 660.015 170.715 659.44 170.937C658.878 171.147 658.27 171.251 657.616 171.251ZM663.594 171.055V160.838H664.967L669.027 167.878L673.106 160.838H674.42V171.055H673.145V162.838L669.458 169.231H668.595L664.869 162.838V171.055H663.594ZM681.385 171.251C680.653 171.251 679.973 171.114 679.346 170.839C678.731 170.552 678.195 170.166 677.737 169.682C677.293 169.185 676.946 168.623 676.698 167.996C676.45 167.355 676.325 166.682 676.325 165.976C676.325 165.244 676.45 164.564 676.698 163.936C676.946 163.296 677.299 162.733 677.757 162.25C678.215 161.753 678.751 161.367 679.365 161.093C679.993 160.805 680.673 160.661 681.405 160.661C682.137 160.661 682.81 160.805 683.425 161.093C684.039 161.367 684.575 161.753 685.033 162.25C685.49 162.733 685.843 163.296 686.092 163.936C686.34 164.564 686.464 165.244 686.464 165.976C686.464 166.682 686.34 167.355 686.092 167.996C685.843 168.623 685.49 169.185 685.033 169.682C684.588 170.166 684.052 170.552 683.425 170.839C682.81 171.114 682.13 171.251 681.385 171.251ZM677.679 165.995C677.679 166.754 677.842 167.447 678.169 168.074C678.509 168.689 678.96 169.179 679.522 169.545C680.084 169.898 680.705 170.074 681.385 170.074C682.065 170.074 682.686 169.891 683.248 169.525C683.81 169.159 684.261 168.662 684.601 168.035C684.941 167.394 685.111 166.701 685.111 165.956C685.111 165.198 684.941 164.505 684.601 163.877C684.261 163.25 683.81 162.753 683.248 162.387C682.686 162.021 682.065 161.838 681.385 161.838C680.705 161.838 680.084 162.027 679.522 162.407C678.973 162.786 678.528 163.289 678.189 163.917C677.849 164.531 677.679 165.224 677.679 165.995ZM690.911 171.055V162.034H687.263V160.838H695.892V162.034H692.244V171.055H690.911ZM702.591 171.251C701.741 171.251 700.976 171.029 700.296 170.584C699.629 170.14 699.1 169.591 698.707 168.937V175.232H697.374V160.838H698.57V162.818C698.976 162.178 699.518 161.661 700.198 161.269C700.878 160.864 701.603 160.661 702.375 160.661C703.081 160.661 703.728 160.811 704.316 161.112C704.905 161.4 705.415 161.792 705.846 162.289C706.277 162.786 706.611 163.354 706.846 163.995C707.095 164.623 707.219 165.276 707.219 165.956C707.219 166.911 707.023 167.793 706.63 168.604C706.251 169.401 705.715 170.042 705.022 170.526C704.329 171.009 703.519 171.251 702.591 171.251ZM702.218 170.074C702.78 170.074 703.283 169.963 703.728 169.741C704.172 169.506 704.552 169.192 704.865 168.8C705.192 168.408 705.441 167.97 705.611 167.486C705.781 166.989 705.866 166.479 705.866 165.956C705.866 165.407 705.768 164.884 705.571 164.387C705.388 163.89 705.12 163.452 704.767 163.073C704.414 162.694 704.009 162.393 703.551 162.171C703.094 161.949 702.597 161.838 702.061 161.838C701.721 161.838 701.368 161.903 701.002 162.034C700.636 162.165 700.283 162.354 699.943 162.603C699.616 162.838 699.342 163.106 699.119 163.407C698.897 163.707 698.76 164.028 698.707 164.368V167.505C698.917 167.989 699.198 168.427 699.551 168.819C699.904 169.199 700.309 169.506 700.767 169.741C701.237 169.963 701.721 170.074 702.218 170.074ZM713.557 171.251C712.825 171.251 712.145 171.114 711.517 170.839C710.89 170.552 710.347 170.166 709.89 169.682C709.432 169.185 709.072 168.617 708.811 167.976C708.563 167.335 708.438 166.649 708.438 165.917C708.438 164.963 708.654 164.087 709.086 163.289C709.53 162.491 710.138 161.857 710.909 161.387C711.681 160.903 712.557 160.661 713.537 160.661C714.544 160.661 715.42 160.903 716.165 161.387C716.923 161.87 717.518 162.511 717.95 163.309C718.381 164.093 718.597 164.956 718.597 165.897C718.597 166.002 718.597 166.106 718.597 166.211C718.597 166.303 718.59 166.375 718.577 166.427H709.831C709.896 167.159 710.099 167.813 710.439 168.388C710.792 168.95 711.243 169.401 711.792 169.741C712.354 170.068 712.962 170.231 713.616 170.231C714.282 170.231 714.91 170.061 715.498 169.721C716.1 169.382 716.518 168.937 716.753 168.388L717.911 168.702C717.701 169.185 717.381 169.623 716.95 170.016C716.518 170.408 716.008 170.715 715.42 170.937C714.845 171.147 714.224 171.251 713.557 171.251ZM709.792 165.466H717.342C717.29 164.721 717.087 164.067 716.734 163.505C716.394 162.943 715.943 162.505 715.381 162.191C714.832 161.864 714.224 161.701 713.557 161.701C712.89 161.701 712.282 161.864 711.733 162.191C711.184 162.505 710.733 162.949 710.38 163.524C710.04 164.087 709.844 164.734 709.792 165.466ZM722.87 171.055V162.034H719.223V160.838H727.852V162.034H724.204V171.055H722.87ZM729.314 171.055V160.838H730.648V164.446H733.295C734.459 164.446 735.335 164.747 735.923 165.348C736.524 165.937 736.825 166.714 736.825 167.682C736.825 168.309 736.694 168.878 736.433 169.388C736.171 169.898 735.786 170.303 735.276 170.604C734.779 170.905 734.151 171.055 733.393 171.055H729.314ZM730.648 169.996H733.217C733.753 169.996 734.184 169.891 734.511 169.682C734.838 169.46 735.08 169.179 735.237 168.839C735.393 168.486 735.472 168.107 735.472 167.702C735.472 167.309 735.4 166.95 735.256 166.623C735.125 166.283 734.89 166.015 734.55 165.819C734.223 165.61 733.766 165.505 733.177 165.505H730.648V169.996Z" fill="white" fill-opacity="0.9"/>
<path d="M738.181 407.054V405.215C738.715 405.215 739.189 405.077 739.604 404.8C740.019 404.504 740.385 404.01 740.701 403.318C741.037 402.626 741.304 401.677 741.502 400.471C741.699 399.246 741.828 397.694 741.887 395.816L742.065 391.517H752.087V406.965H750.071V393.326H743.844L743.785 395.994C743.706 398.129 743.538 399.918 743.281 401.361C743.024 402.784 742.658 403.911 742.184 404.741C741.729 405.571 741.166 406.164 740.494 406.52C739.822 406.876 739.051 407.054 738.181 407.054ZM754.795 402.517C754.795 401.549 755.072 400.719 755.625 400.027C756.178 399.315 756.939 398.772 757.908 398.396C758.896 398.001 760.033 397.803 761.318 397.803C762.069 397.803 762.85 397.862 763.66 397.981C764.471 398.1 765.192 398.277 765.825 398.515V397.21C765.825 395.905 765.439 394.868 764.668 394.097C763.897 393.326 762.83 392.94 761.466 392.94C760.636 392.94 759.816 393.099 759.005 393.415C758.214 393.711 757.384 394.156 756.515 394.749L755.744 393.326C756.752 392.634 757.74 392.12 758.709 391.784C759.677 391.428 760.665 391.25 761.674 391.25C763.571 391.25 765.073 391.794 766.18 392.881C767.287 393.968 767.841 395.471 767.841 397.388V404.534C767.841 404.81 767.9 405.018 768.019 405.156C768.137 405.275 768.325 405.344 768.582 405.364V406.965C768.365 406.985 768.177 407.004 768.019 407.024C767.861 407.044 767.742 407.044 767.663 407.024C767.169 407.004 766.793 406.846 766.536 406.55C766.279 406.253 766.141 405.937 766.121 405.601L766.091 404.474C765.4 405.364 764.5 406.056 763.393 406.55C762.286 407.024 761.16 407.261 760.013 407.261C759.025 407.261 758.125 407.054 757.315 406.639C756.524 406.204 755.902 405.631 755.447 404.919C755.012 404.188 754.795 403.387 754.795 402.517ZM765.143 403.703C765.36 403.427 765.528 403.16 765.647 402.903C765.765 402.646 765.825 402.419 765.825 402.221V399.967C765.152 399.71 764.451 399.513 763.719 399.374C763.008 399.236 762.286 399.167 761.555 399.167C760.112 399.167 758.946 399.454 758.056 400.027C757.167 400.6 756.722 401.381 756.722 402.369C756.722 402.942 756.87 403.486 757.167 404C757.463 404.494 757.898 404.909 758.471 405.245C759.045 405.561 759.717 405.72 760.488 405.72C761.456 405.72 762.356 405.532 763.186 405.156C764.036 404.781 764.688 404.296 765.143 403.703ZM771.663 406.965V391.547H773.679V404.237L783.078 391.517H784.887V406.965H782.871V394.482L773.62 406.965H771.663ZM778.305 389.56C776.961 389.56 775.923 389.244 775.192 388.612C774.46 387.979 774.095 387.178 774.095 386.21H775.577C775.577 386.803 775.794 387.297 776.229 387.692C776.684 388.088 777.376 388.285 778.305 388.285C779.214 388.285 779.876 388.098 780.291 387.722C780.726 387.346 780.973 386.842 781.033 386.21H782.485C782.485 387.178 782.12 387.979 781.388 388.612C780.657 389.244 779.629 389.56 778.305 389.56ZM788.764 406.965V391.517H790.78V398.129H793.093L798.281 391.517H800.594L794.694 399.019L801.335 406.965H798.963L793.093 399.997H790.78V406.965H788.764Z" fill="white"/>
<path d="M950.511 216.451C949.384 216.451 948.347 216.243 947.398 215.828C946.469 215.393 945.648 214.8 944.937 214.049C944.245 213.298 943.701 212.438 943.306 211.47C942.931 210.501 942.743 209.473 942.743 208.386C942.743 206.923 943.069 205.589 943.721 204.383C944.374 203.178 945.283 202.219 946.449 201.507C947.615 200.796 948.959 200.44 950.481 200.44C951.924 200.44 953.199 200.776 954.306 201.448C955.413 202.1 956.233 202.99 956.767 204.116L954.81 204.739C954.375 203.948 953.763 203.336 952.972 202.901C952.201 202.446 951.341 202.219 950.392 202.219C949.365 202.219 948.426 202.486 947.576 203.019C946.726 203.553 946.044 204.285 945.53 205.214C945.036 206.143 944.789 207.2 944.789 208.386C944.789 209.552 945.046 210.61 945.56 211.559C946.073 212.507 946.755 213.268 947.605 213.842C948.455 214.395 949.394 214.672 950.422 214.672C951.094 214.672 951.737 214.553 952.349 214.316C952.982 214.079 953.525 213.763 953.98 213.367C954.454 212.952 954.771 212.507 954.929 212.033L956.915 212.626C956.639 213.357 956.174 214.02 955.522 214.613C954.889 215.186 954.138 215.64 953.268 215.976C952.419 216.293 951.499 216.451 950.511 216.451ZM966.016 216.451C964.909 216.451 963.881 216.243 962.933 215.828C962.004 215.393 961.193 214.81 960.501 214.079C959.829 213.328 959.306 212.478 958.93 211.529C958.554 210.56 958.367 209.542 958.367 208.475C958.367 207.368 958.554 206.34 958.93 205.391C959.306 204.423 959.839 203.573 960.531 202.842C961.223 202.09 962.033 201.507 962.962 201.092C963.911 200.657 964.939 200.44 966.046 200.44C967.153 200.44 968.171 200.657 969.1 201.092C970.029 201.507 970.839 202.09 971.531 202.842C972.223 203.573 972.757 204.423 973.132 205.391C973.508 206.34 973.696 207.368 973.696 208.475C973.696 209.542 973.508 210.56 973.132 211.529C972.757 212.478 972.223 213.328 971.531 214.079C970.859 214.81 970.049 215.393 969.1 215.828C968.171 216.243 967.143 216.451 966.016 216.451ZM960.412 208.505C960.412 209.651 960.66 210.699 961.154 211.648C961.668 212.577 962.35 213.318 963.2 213.871C964.05 214.405 964.988 214.672 966.016 214.672C967.044 214.672 967.983 214.395 968.833 213.842C969.683 213.288 970.365 212.537 970.879 211.588C971.393 210.62 971.65 209.572 971.65 208.445C971.65 207.299 971.393 206.251 970.879 205.302C970.365 204.354 969.683 203.603 968.833 203.049C967.983 202.496 967.044 202.219 966.016 202.219C964.988 202.219 964.05 202.506 963.2 203.079C962.369 203.652 961.697 204.413 961.183 205.362C960.669 206.291 960.412 207.338 960.412 208.505ZM977.038 200.707L981.574 206.755L981.812 207.2L982.049 206.755L986.556 200.707H988.839L982.968 208.475L988.839 216.154H986.556L982.049 210.135L981.812 209.72L981.574 210.135L977.068 216.154H974.785L980.626 208.475L974.785 200.707H977.038ZM998.887 216.451C997.602 216.451 996.446 216.115 995.418 215.443C994.41 214.771 993.609 213.94 993.016 212.952V222.47H991V200.707H992.809V203.701C993.422 202.733 994.242 201.952 995.27 201.359C996.298 200.746 997.395 200.44 998.561 200.44C999.628 200.44 1000.61 200.667 1001.5 201.122C1002.39 201.557 1003.16 202.15 1003.81 202.901C1004.46 203.652 1004.97 204.512 1005.32 205.48C1005.7 206.429 1005.88 207.418 1005.88 208.445C1005.88 209.888 1005.59 211.223 1004.99 212.448C1004.42 213.654 1003.61 214.622 1002.56 215.354C1001.52 216.085 1000.29 216.451 998.887 216.451ZM998.324 214.672C999.174 214.672 999.935 214.504 1000.61 214.168C1001.28 213.812 1001.85 213.338 1002.33 212.745C1002.82 212.152 1003.2 211.489 1003.45 210.758C1003.71 210.007 1003.84 209.236 1003.84 208.445C1003.84 207.615 1003.69 206.825 1003.39 206.073C1003.12 205.322 1002.71 204.66 1002.18 204.087C1001.64 203.514 1001.03 203.059 1000.34 202.723C999.648 202.387 998.897 202.219 998.087 202.219C997.573 202.219 997.039 202.318 996.485 202.515C995.932 202.713 995.398 203 994.884 203.375C994.39 203.731 993.975 204.136 993.639 204.591C993.303 205.046 993.095 205.53 993.016 206.044V210.788C993.333 211.519 993.758 212.181 994.291 212.774C994.825 213.347 995.438 213.812 996.13 214.168C996.841 214.504 997.573 214.672 998.324 214.672ZM1007.55 211.707C1007.55 210.738 1007.83 209.908 1008.38 209.216C1008.93 208.505 1009.7 207.961 1010.66 207.586C1011.65 207.19 1012.79 206.993 1014.07 206.993C1014.82 206.993 1015.61 207.052 1016.42 207.17C1017.23 207.289 1017.95 207.467 1018.58 207.704V206.4C1018.58 205.095 1018.19 204.057 1017.42 203.286C1016.65 202.515 1015.59 202.13 1014.22 202.13C1013.39 202.13 1012.57 202.288 1011.76 202.604C1010.97 202.901 1010.14 203.346 1009.27 203.939L1008.5 202.515C1009.51 201.824 1010.5 201.31 1011.46 200.974C1012.43 200.618 1013.42 200.44 1014.43 200.44C1016.33 200.44 1017.83 200.983 1018.94 202.071C1020.04 203.158 1020.6 204.66 1020.6 206.577V213.723C1020.6 214 1020.66 214.207 1020.77 214.346C1020.89 214.464 1021.08 214.533 1021.34 214.553V216.154C1021.12 216.174 1020.93 216.194 1020.77 216.214C1020.62 216.233 1020.5 216.233 1020.42 216.214C1019.92 216.194 1019.55 216.036 1019.29 215.739C1019.03 215.443 1018.9 215.126 1018.88 214.79L1018.85 213.664C1018.16 214.553 1017.26 215.245 1016.15 215.739C1015.04 216.214 1013.92 216.451 1012.77 216.451C1011.78 216.451 1010.88 216.243 1010.07 215.828C1009.28 215.393 1008.66 214.82 1008.2 214.108C1007.77 213.377 1007.55 212.577 1007.55 211.707ZM1017.9 212.893C1018.12 212.616 1018.28 212.349 1018.4 212.092C1018.52 211.835 1018.58 211.608 1018.58 211.41V209.157C1017.91 208.9 1017.21 208.702 1016.47 208.564C1015.76 208.426 1015.04 208.356 1014.31 208.356C1012.87 208.356 1011.7 208.643 1010.81 209.216C1009.92 209.789 1009.48 210.57 1009.48 211.559C1009.48 212.132 1009.63 212.675 1009.92 213.189C1010.22 213.684 1010.65 214.099 1011.23 214.435C1011.8 214.751 1012.47 214.909 1013.24 214.909C1014.21 214.909 1015.11 214.721 1015.94 214.346C1016.79 213.97 1017.44 213.486 1017.9 212.893ZM1024.42 216.154V200.707H1026.44V207.348H1035.27V200.707H1037.29V216.154H1035.27V209.157H1026.44V216.154H1024.42ZM1040.07 216.154L1044.67 209.839C1043.62 209.681 1042.77 209.226 1042.12 208.475C1041.49 207.704 1041.17 206.656 1041.17 205.332C1041.17 204.443 1041.38 203.652 1041.79 202.96C1042.21 202.268 1042.79 201.715 1043.54 201.3C1044.31 200.885 1045.21 200.677 1046.24 200.677H1052.14V216.154H1050.13V210.165H1046.69L1042.33 216.154H1040.07ZM1046.21 208.623H1050.13V202.278H1046.57C1045.54 202.278 1044.72 202.575 1044.11 203.168C1043.49 203.741 1043.19 204.472 1043.19 205.362C1043.19 206.271 1043.43 207.042 1043.93 207.674C1044.44 208.307 1045.2 208.623 1046.21 208.623ZM1059.93 216.154V202.515H1054.41V200.707H1067.46V202.515H1061.94V216.154H1059.93ZM1069.67 216.154V200.707H1071.69V206.162H1075.69C1077.45 206.162 1078.77 206.617 1079.66 207.526C1080.57 208.416 1081.02 209.592 1081.02 211.055C1081.02 212.003 1080.83 212.863 1080.43 213.634C1080.04 214.405 1079.45 215.018 1078.68 215.472C1077.93 215.927 1076.98 216.154 1075.84 216.154H1069.67ZM1071.69 214.553H1075.57C1076.38 214.553 1077.03 214.395 1077.53 214.079C1078.02 213.743 1078.39 213.318 1078.62 212.804C1078.86 212.27 1078.98 211.697 1078.98 211.084C1078.98 210.491 1078.87 209.948 1078.65 209.453C1078.46 208.94 1078.1 208.534 1077.59 208.238C1077.09 207.922 1076.4 207.763 1075.51 207.763H1071.69V214.553Z" fill="white" fill-opacity="0.9"/>
<path d="M97.6084 423.132V407.684H110.032V423.132H108.015V409.493H99.6246V423.132H97.6084ZM120.568 423.428C119.461 423.428 118.433 423.221 117.484 422.806C116.555 422.371 115.745 421.788 115.053 421.056C114.381 420.305 113.857 419.455 113.482 418.506C113.106 417.538 112.918 416.52 112.918 415.452C112.918 414.345 113.106 413.318 113.482 412.369C113.857 411.4 114.391 410.55 115.083 409.819C115.775 409.068 116.585 408.485 117.514 408.07C118.463 407.635 119.491 407.417 120.598 407.417C121.705 407.417 122.723 407.635 123.652 408.07C124.581 408.485 125.391 409.068 126.083 409.819C126.775 410.55 127.308 411.4 127.684 412.369C128.06 413.318 128.247 414.345 128.247 415.452C128.247 416.52 128.06 417.538 127.684 418.506C127.308 419.455 126.775 420.305 126.083 421.056C125.411 421.788 124.6 422.371 123.652 422.806C122.723 423.221 121.695 423.428 120.568 423.428ZM114.964 415.482C114.964 416.628 115.211 417.676 115.705 418.625C116.219 419.554 116.901 420.295 117.751 420.849C118.601 421.382 119.54 421.649 120.568 421.649C121.596 421.649 122.535 421.372 123.385 420.819C124.235 420.266 124.917 419.514 125.431 418.566C125.945 417.597 126.202 416.549 126.202 415.423C126.202 414.276 125.945 413.229 125.431 412.28C124.917 411.331 124.235 410.58 123.385 410.026C122.535 409.473 121.596 409.196 120.568 409.196C119.54 409.196 118.601 409.483 117.751 410.056C116.921 410.629 116.249 411.39 115.735 412.339C115.221 413.268 114.964 414.316 114.964 415.482ZM131.086 423.132V407.714H133.102V420.404L142.501 407.684H144.309V423.132H142.293V410.649L133.043 423.132H131.086ZM154.917 423.428C153.79 423.428 152.752 423.221 151.803 422.806C150.874 422.371 150.054 421.778 149.343 421.027C148.651 420.275 148.107 419.416 147.712 418.447C147.336 417.478 147.148 416.451 147.148 415.363C147.148 413.901 147.475 412.566 148.127 411.361C148.779 410.155 149.688 409.196 150.855 408.485C152.021 407.773 153.365 407.417 154.887 407.417C156.33 407.417 157.605 407.753 158.712 408.425C159.819 409.078 160.639 409.967 161.173 411.094L159.216 411.716C158.781 410.926 158.168 410.313 157.378 409.878C156.607 409.424 155.747 409.196 154.798 409.196C153.77 409.196 152.831 409.463 151.981 409.997C151.131 410.53 150.449 411.262 149.936 412.191C149.441 413.12 149.194 414.177 149.194 415.363C149.194 416.53 149.451 417.587 149.965 418.536C150.479 419.485 151.161 420.246 152.011 420.819C152.861 421.372 153.8 421.649 154.828 421.649C155.5 421.649 156.142 421.531 156.755 421.293C157.388 421.056 157.931 420.74 158.386 420.345C158.86 419.929 159.176 419.485 159.335 419.01L161.321 419.603C161.044 420.335 160.58 420.997 159.928 421.59C159.295 422.163 158.544 422.618 157.674 422.954C156.824 423.27 155.905 423.428 154.917 423.428ZM163.955 423.132V407.684H165.971V414.296H168.284L173.472 407.684H175.785L169.885 415.185L176.526 423.132H174.154L168.284 416.164H165.971V423.132H163.955Z" fill="white" fill-opacity="0.9"/>
</svg>
