<svg width="143" height="143" viewBox="0 0 143 143" fill="none" xmlns="http://www.w3.org/2000/svg">
<circle cx="71.6807" cy="71.6077" r="70.7628" fill="white" fill-opacity="0.9"/>
<ellipse cx="71.6817" cy="53.1162" rx="30.9571" ry="31.3279" fill="#2356F6"/>
<path d="M71.5369 121.425L42.8924 64.6683L100.72 64.1672L71.5369 121.425Z" fill="#2356F6"/>
<ellipse cx="71.6827" cy="53.1169" rx="23.8777" ry="25.1766" fill="white"/>
<path fill-rule="evenodd" clip-rule="evenodd" d="M58.1684 37.294C57.15 37.5137 56.2825 38.1778 55.8311 39.0834C55.4615 39.825 55.4748 39.3684 55.4933 50.6702L55.5102 61.0287L55.6517 61.437C55.8347 61.9653 56.34 62.668 56.7615 62.9804C57.2179 63.3186 57.835 63.5889 58.3266 63.6658C58.5901 63.7071 60.9818 63.7305 64.9823 63.7307L71.2266 63.7312L71.3892 64.1506C71.4787 64.3812 71.9081 65.5065 72.3434 66.6512C72.9351 68.2068 73.1761 68.7677 73.2975 68.8722L73.4599 69.012L79.1683 69.011C84.036 69.0103 84.9363 68.9963 85.2822 68.9163C86.5415 68.6249 87.6042 67.5194 87.818 66.2784C87.8671 65.9931 87.8822 62.8387 87.8694 55.5305L87.8513 45.1864L87.7048 44.7826C87.3624 43.8385 86.6393 43.1083 85.6539 42.7117C85.3202 42.5773 85.3092 42.577 78.6512 42.546L71.9826 42.515L71.1299 40.061C70.4373 38.0675 70.2425 37.572 70.0917 37.4206L69.9062 37.2342L64.2272 37.2232C59.7273 37.2143 58.4692 37.2291 58.1684 37.294ZM69.2153 38.6476C69.4187 39.096 77.4783 62.3417 77.4437 62.3802C77.4206 62.406 73.1311 62.42 67.9116 62.4113L58.4215 62.3955L58.0641 62.231C57.6089 62.0215 57.2203 61.64 57.0069 61.1932L56.8393 60.8423V50.4672V40.092L57.0069 39.7411C57.3008 39.1258 57.8795 38.6755 58.5114 38.5706C58.6708 38.5441 61.1301 38.5191 63.9765 38.5151L69.1519 38.5078L69.2153 38.6476ZM85.3635 44.0254C85.7767 44.2251 86.1563 44.6068 86.3544 45.0215L86.5222 45.3728V55.779V66.1852L86.3854 66.4757C86.1918 66.8871 85.7769 67.3033 85.3603 67.5042L85.0032 67.6762L81.0476 67.6938C78.872 67.7034 76.6675 67.7034 76.1487 67.6938L75.2055 67.6762L77.1456 65.507C78.9179 63.5253 79.0856 63.3185 79.0856 63.1151C79.0857 62.9926 78.8082 62.0927 78.469 61.1151L77.8522 59.3377L78.0734 59.1601C78.195 59.0623 78.4934 58.7946 78.7365 58.5651L79.1785 58.1479L80.5461 59.4746C81.2983 60.2042 82.0108 60.8593 82.1294 60.9302C82.3751 61.0773 82.5516 61.0921 82.7899 60.9855C83.0727 60.859 83.2326 60.3814 83.0771 60.1279C83.0456 60.0766 82.3564 59.3874 81.5455 58.5963L80.0713 57.158L80.4255 56.7015C81.5107 55.3029 82.4417 53.6662 82.8762 52.3931L83.067 51.834L83.8769 51.8029C84.3536 51.7846 84.7441 51.7397 84.826 51.6937C85.2125 51.4766 85.2798 50.9967 84.9667 50.6894L84.772 50.4982L83.6535 50.494C83.0383 50.4915 81.9155 50.4933 81.1584 50.4979L79.7818 50.5063L79.7816 50.0829C79.7813 49.5871 79.6506 49.3204 79.3475 49.1971C79.0903 49.0926 78.8559 49.1558 78.633 49.3901C78.4684 49.563 78.4527 49.6196 78.4527 50.0398V50.5001L76.6025 50.4836L74.7524 50.4672L74.2666 49.0693C73.9995 48.3005 73.481 46.8114 73.1144 45.7602L72.4478 43.849L78.7572 43.8654L85.0665 43.8818L85.3635 44.0254ZM64.5898 45.3082C64.5015 45.3555 64.395 45.4592 64.3533 45.5387C64.1506 45.9255 60.9215 54.9482 60.9215 55.1278C60.9215 55.3859 61.1715 55.6926 61.4265 55.7477C61.7148 55.8098 62.029 55.6311 62.1719 55.3237C62.2381 55.1812 62.5573 54.3307 62.8812 53.4337L63.4702 51.8029H64.9361H66.402L67.0548 53.6007C67.4139 54.5894 67.748 55.455 67.7973 55.5242C67.8467 55.5933 67.9898 55.6777 68.1153 55.7118C68.5358 55.8257 68.9593 55.533 68.9593 55.1283C68.9593 54.9748 66.0596 46.8723 65.5949 45.7273C65.4037 45.2564 65.0012 45.0886 64.5898 45.3082ZM65.4078 49.0726C65.6496 49.7371 65.8671 50.3297 65.8912 50.3895C65.9317 50.4902 65.8623 50.4982 64.9471 50.4982C64.4039 50.4982 63.9594 50.4882 63.9594 50.4759C63.9594 50.4635 64.173 49.8698 64.4341 49.1563C64.6951 48.4429 64.9087 47.8472 64.9087 47.8326C64.9087 47.7309 65.022 48.0124 65.4078 49.0726ZM81.6805 51.8323C81.6805 51.9415 81.2291 52.9464 80.9123 53.5424C80.5583 54.2084 79.6708 55.5738 79.3186 55.9945L79.1641 56.179L78.9825 55.9688C78.4729 55.379 78.1362 54.9314 77.8622 54.4792C77.5202 53.9148 77.3779 53.7909 77.0716 53.7909C76.7814 53.7909 76.4275 54.1298 76.4275 54.4078C76.4275 54.7791 76.9744 55.6528 77.8471 56.6759L78.2677 57.169L77.8403 57.5917C77.5581 57.8709 77.3988 57.9883 77.3714 57.9374C77.3485 57.895 76.8689 56.5374 76.3054 54.9205C75.742 53.3036 75.2653 51.9407 75.2462 51.8918C75.2163 51.8154 75.6659 51.8029 78.446 51.8029C80.225 51.8029 81.6805 51.8161 81.6805 51.8323ZM76.7975 63.9021C76.7094 63.996 76.0307 64.7542 75.2892 65.587L73.9409 67.1011L73.3172 65.4688C72.9741 64.5709 72.6934 63.8127 72.6934 63.7838C72.6934 63.7549 73.6528 63.7312 74.8254 63.7312H76.9575L76.7975 63.9021Z" fill="#003EFF"/>
</svg>
