<svg width="142" height="143" viewBox="0 0 142 143" fill="none" xmlns="http://www.w3.org/2000/svg">
<circle cx="71.2374" cy="71.6571" r="70.7628" fill="white" fill-opacity="0.9"/>
<path fill-rule="evenodd" clip-rule="evenodd" d="M59.9839 52.2197C58.0914 52.8137 56.6913 54.1412 56.0575 55.9425L55.7873 56.7104V75.3227V93.935L56.0462 94.743C56.8304 97.1905 59.078 98.7583 61.8026 98.7583C62.862 98.7583 63.7248 98.5474 64.5813 98.0789C65.1247 97.7818 67.5624 96.2141 77.2338 89.9417C80.8159 87.6185 83.4377 85.92 89.8968 81.7381C93.0261 79.7121 93.6035 79.2589 94.1829 78.3741C95.357 76.5807 95.3392 73.9948 94.1411 72.3031C93.4385 71.3112 93.2044 71.1436 86.1939 66.6202C85.1765 65.9638 80.0259 62.629 74.7481 59.2096C69.4703 55.7903 64.8919 52.8503 64.574 52.6762C64.2561 52.5022 63.7134 52.279 63.3679 52.1802C62.5058 51.9336 60.8333 51.9531 59.9839 52.2197Z" fill="#2356F6"/>
</svg>
